SplineFontDB: 3.2
FontName: LibrestileExtBoldOblique
FullName: Librestile Extended Bold Oblique
FamilyName: Librestile Extended Bold Oblique
Weight: Bold
Copyright: SIL Open Font License.\n\n\nMade by ocelothe2k1, 2024
UComments: "2024-1-29: Created with FontForge.+AAoACgAA-sub to oce pls"
Version: 2.0
ItalicAngle: 0
UnderlinePosition: -100
UnderlineWidth: 50
Ascent: 800
Descent: 200
InvalidEm: 0
LayerCount: 2
Layer: 0 0 "Warstwa t+AUIA-a" 1
Layer: 1 0 "Plan pierwszy" 0
XUID: [1021 541 -643795429 6326]
StyleMap: 0x0000
FSType: 0
OS2Version: 0
OS2_WeightWidthSlopeOnly: 0
OS2_UseTypoMetrics: 1
CreationTime: 1706545661
ModificationTime: 1710372815
PfmFamily: 17
TTFWeight: 400
TTFWidth: 5
LineGap: 90
VLineGap: 90
OS2TypoAscent: 0
OS2TypoAOffset: 1
OS2TypoDescent: 0
OS2TypoDOffset: 1
OS2TypoLinegap: 90
OS2WinAscent: 0
OS2WinAOffset: 1
OS2WinDescent: 0
OS2WinDOffset: 1
HheadAscent: 0
HheadAOffset: 1
HheadDescent: 0
HheadDOffset: 1
OS2Vendor: 'PfEd'
MarkAttachClasses: 1
DEI: 91125
LangName: 1033
Encoding: iso8859-16
UnicodeInterp: none
NameList: AGL For New Fonts
DisplaySize: -48
AntiAlias: 1
FitToEm: 0
WinInfo: 0 38 13
BeginPrivate: 0
EndPrivate
TeXData: 1 0 0 31457 15728 10485 566231 1048576 10485 783286 444596 497025 792723 393216 433062 380633 303038 157286 324010 404750 52429 2506097 1059062 262144
BeginChars: 257 257

StartChar: A
Encoding: 65 65 0
Width: 1214
Flags: HW
LayerCount: 2
Fore
SplineSet
622.825195312 771.596679688 m 1
 619.903320312 767.796875 l 1
 278.939453125 324.006835938 l 1
 30 0 l 1
 275.125 0 l 1
 381.719726562 138.739257812 l 1
 881.375976562 138.739257812 l 1
 939.04296875 0 l 1
 1184.16796875 0 l 1
 865.026367188 767.796875 l 1
 863.450195312 771.596679688 l 1
 622.825195312 771.596679688 l 1
705.95703125 560.7578125 m 1
 804.365234375 324.006835938 l 1
 524.064453125 324.006835938 l 1
 705.95703125 560.7578125 l 1
EndSplineSet
EndChar

StartChar: B
Encoding: 66 66 1
Width: 1013
Flags: HW
HStem: 574.438 197.344<275.125 724.476>
LayerCount: 2
Fore
SplineSet
206.276367188 771.782226562 m 1
 206.244140625 771.596679688 l 1
 166.053710938 771.596679688 l 1
 30 0 l 1
 275.125 0 l 1
 275.265625 0.7978515625 l 1
 684.26953125 0.7978515625 l 2
 713.727539062 -1.5166015625 728.268554688 0.9951171875 753.51171875 0.9951171875 c 0
 880.768554688 0.99609375 999.494140625 89.26171875 1018.69628906 198.147460938 c 0
 1034.60058594 288.33984375 977.194335938 364.3359375 884.704101562 387.791015625 c 1
 980.203125 414.225585938 1058.55273438 487.775390625 1073.83203125 574.439453125 c 0
 1093.02929688 683.325195312 1005.43359375 771.596679688 878.176757812 771.59765625 c 0
 870.6015625 771.59765625 860.318359375 771.59765625 851.822265625 771.708007812 c 2
 851.840820312 771.813476562 l 1
 206.276367188 771.782226562 l 1
376.4140625 574.438476562 m 1
 783.661132812 574.438476562 l 2
 812.6796875 574.439453125 832.0390625 550.822265625 826.900390625 521.686523438 c 2
 825.84765625 515.715820312 l 2
 820.708984375 486.583984375 799.825195312 456.897460938 770.80859375 456.8984375 c 2
 355.688476562 456.8984375 l 1
 376.4140625 574.438476562 l 1
327.288085938 295.833007812 m 1
 626.85546875 295.833007812 l 1
 756.682617188 295.833007812 l 2
 785.69921875 295.834960938 796.555664062 286.005859375 791.419921875 256.873046875 c 2
 790.3671875 250.903320312 l 2
 785.23828125 221.805664062 757.612304688 198.2109375 728.635742188 198.151367188 c 2
 310.064453125 198.151367188 l 1
 327.288085938 295.833007812 l 1
EndSplineSet
EndChar

StartChar: C
Encoding: 67 67 2
Width: 1095
Flags: HW
HStem: 0 172.676<307.905 367.971 681.031 741.097> 598.921 172.676<307.905 367.971 681.031 741.905>
LayerCount: 2
Fore
SplineSet
646.348632812 770 m 4
 564.186523438 769.856445312 481.8046875 765.344726562 398.591796875 753.783203125 c 4
 272.395507812 736.249023438 172.44921875 654.379882812 134.603515625 534.173828125 c 4
 103.315429688 434.798828125 85.4658203125 334.934570312 81.7734375 234.560546875 c 4
 77.3525390625 114.369140625 148.303710938 32.4853515625 268.31640625 14.951171875 c 4
 359.758789062 1.5908203125 453.416992188 -2.3759765625 548.778320312 -0.966796875 c 4
 643.64453125 -2.37109375 738.702148438 1.5908203125 834.856445312 14.951171875 c 4
 961.052734375 32.4853515625 1060.88085938 114.369140625 1098.84570312 234.560546875 c 4
 1106.87402344 259.9765625 1113.96582031 285.360351562 1120.16699219 310.7109375 c 5
 884.791015625 310.7109375 l 5
 864.811523438 254.127929688 811.114257812 215.610351562 742.265625 207.296875 c 4
 689.229492188 200.893554688 636.674804688 198.990234375 584.155273438 199.666015625 c 4
 531.396484375 198.985351562 479.515625 200.897460938 428.734375 207.296875 c 4
 362.087890625 215.702148438 321.75 254.953125 322.630859375 312.56640625 c 4
 323.362304688 360.680664062 331.935546875 408.55078125 347.955078125 456.1875 c 4
 367.326171875 513.80859375 421.571289062 553.049804688 491.181640625 561.453125 c 4
 537.084960938 566.997070312 582.615234375 569.174804688 628.083007812 569.232421875 c 4
 642.240234375 569.236328125 656.3671875 569.05859375 670.55859375 569.232421875 c 4
 716.01171875 569.232421875 760.76953125 566.997070312 804.712890625 561.453125 c 4
 848.688476562 555.908203125 881.1328125 536.873046875 897.919921875 508.05859375 c 5
 1150.24121094 508.05859375 l 5
 1150.78027344 516.765625 1151.34863281 525.473632812 1151.67578125 534.173828125 c 4
 1156.22167969 654.379882812 1085.14453125 736.249023438 965.131835938 753.783203125 c 4
 885.999023438 765.344726562 805.211914062 769.8984375 723.094726562 770 c 4
 697.446289062 769.63671875 671.932617188 770 646.348632812 770 c 4
EndSplineSet
EndChar

StartChar: D
Encoding: 68 68 3
Width: 1099
Flags: HW
VStem: 840.195 229.512<245.861 313.767 449.688 516.992>
LayerCount: 2
Fore
SplineSet
166.053710938 771.596679688 m 1
 30 0 l 1
 825.775390625 0 l 2
 960.404296875 0.0009765625 1089.10253906 109.997070312 1112.9921875 245.481445312 c 1
 1159.67773438 510.250976562 l 2
 1185.11132812 654.491210938 1089.39453125 771.595703125 946.067382812 771.596679688 c 1
 166.053710938 771.596679688 l 1
362.461914062 583.860351562 m 1
 798.108398438 583.860351562 l 2
 878.157226562 583.857421875 932.543945312 523.736328125 919.487304688 449.6875 c 1
 919.48828125 449.690429688 895.520507812 313.766601562 895.520507812 313.766601562 c 2
 883.256835938 244.212890625 812.25390625 187.73828125 737.063476562 187.736328125 c 1
 737.064453125 187.741210938 292.614257812 187.736328125 292.614257812 187.736328125 c 1
 362.461914062 583.860351562 l 1
EndSplineSet
EndChar

StartChar: E
Encoding: 69 69 4
Width: 905
Flags: HW
LayerCount: 2
Fore
SplineSet
165.979492188 771.176757812 m 1
 29.92578125 -0.419921875 l 1
 272.166992188 -0.419921875 l 1
 272.241210938 0 l 1
 875.0234375 0 l 1
 909.686523438 196.58203125 l 1
 306.904296875 196.58203125 l 1
 325.939453125 304.538085938 l 1
 851.234375 304.538085938 l 1
 880.831054688 472.387695312 l 1
 355.536132812 472.387695312 l 1
 373.55859375 574.596679688 l 1
 976.340820312 574.596679688 l 1
 1011.00292969 771.176757812 l 1
 408.220703125 771.176757812 l 1
 244.280273438 771.176757812 l 1
 165.979492188 771.176757812 l 1
EndSplineSet
EndChar

StartChar: F
Encoding: 70 70 5
Width: 905
Flags: HW
LayerCount: 2
Fore
SplineSet
166.053710938 771.596679688 m 1
 30 0 l 1
 272.2421875 0 l 1
 320.874023438 275.805664062 l 1
 846.168945312 275.805664062 l 1
 876.853515625 449.823242188 l 1
 351.55859375 449.823242188 l 1
 373.6328125 575.016601562 l 1
 976.4140625 575.016601562 l 1
 1011.07714844 771.596679688 l 1
 408.295898438 771.596679688 l 1
 244.350585938 771.596679688 l 1
 166.053710938 771.596679688 l 1
EndSplineSet
EndChar

StartChar: G
Encoding: 71 71 6
Width: 1095
Flags: HW
HStem: 0 175.365<293.288 351.764 713.539 772.017> 591.355 175.365<293.288 351.764 713.539 772.883>
LayerCount: 2
Fore
SplineSet
646.348632812 770 m 5
 564.188476562 769.856445312 481.803710938 765.344726562 398.591796875 753.783203125 c 4
 272.395507812 736.249023438 172.44921875 654.379882812 134.602539062 534.173828125 c 4
 103.31640625 434.798828125 85.466796875 334.934570312 81.7724609375 234.560546875 c 4
 77.3544921875 114.370117188 148.303710938 32.4853515625 268.31640625 14.951171875 c 4
 359.7578125 1.5908203125 453.416992188 -2.375 548.779296875 -0.966796875 c 4
 643.643554688 -2.37109375 738.702148438 1.5908203125 834.85546875 14.951171875 c 4
 961.053710938 32.4853515625 1060.88183594 114.370117188 1098.84667969 234.560546875 c 4
 1106.87402344 259.9765625 1113.96484375 285.359375 1120.17089844 310.7109375 c 6
 1142.39550781 436.755859375 l 5
 624.701171875 436.755859375 l 5
 602.4765625 310.7109375 l 5
 884.791015625 310.7109375 l 5
 864.810546875 254.127929688 811.116210938 215.610351562 742.26953125 207.296875 c 4
 689.228515625 200.893554688 636.674804688 198.990234375 584.15625 199.666015625 c 4
 531.400390625 198.985351562 479.517578125 200.8984375 428.733398438 207.296875 c 4
 362.08984375 215.702148438 321.750976562 254.953125 322.629882812 312.56640625 c 4
 323.362304688 360.680664062 331.935546875 408.55078125 347.954101562 456.1875 c 4
 367.328125 513.80859375 421.573242188 553.049804688 491.180664062 561.453125 c 4
 537.083984375 566.997070312 582.614257812 569.174804688 628.083007812 569.232421875 c 4
 642.240234375 569.236328125 656.37109375 569.05859375 670.557617188 569.232421875 c 4
 716.015625 569.232421875 760.76953125 566.997070312 804.716796875 561.453125 c 4
 848.6875 555.908203125 882.54296875 544.873046875 899.331054688 516.05859375 c 5
 1148.82617188 516.64453125 l 5
 1151.67578125 534.173828125 l 6
 1171.40722656 655.515625 1085.14453125 736.249023438 965.129882812 753.783203125 c 4
 885.99609375 765.344726562 805.208984375 769.8984375 723.092773438 770 c 4
 697.444335938 769.63671875 671.932617188 770 646.346679688 770 c 5
 646.348632812 770 l 5
EndSplineSet
EndChar

StartChar: H
Encoding: 72 72 7
Width: 1063
Flags: HW
LayerCount: 2
Fore
SplineSet
166.784179688 775.743164062 m 1
 30 0 l 1
 275.124023438 0 l 1
 328.880859375 304.870117188 l 1
 842.326171875 304.870117188 l 1
 788.569335938 0 l 1
 1033.69335938 0 l 1
 1170.47753906 775.743164062 l 1
 925.353515625 775.743164062 l 1
 875.48046875 492.897460938 l 1
 362.03515625 492.897460938 l 1
 411.908203125 775.743164062 l 1
 166.784179688 775.743164062 l 1
EndSplineSet
EndChar

StartChar: I
Encoding: 73 73 8
Width: 305
Flags: HW
VStem: 30 245.123
LayerCount: 2
Fore
SplineSet
166.78515625 775.745117188 m 1
 30 0 l 1
 275.123046875 0 l 1
 411.908203125 775.745117188 l 1
 166.78515625 775.745117188 l 1
EndSplineSet
EndChar

StartChar: J
Encoding: 74 74 9
Width: 861
Flags: HW
HStem: 0 203.476<303.069 356.716 356.82 555.31>
VStem: 584.482 246.91<236.942 771.094>
LayerCount: 2
Fore
SplineSet
335.111328125 330.079101562 m 1
 88.2021484375 330.079101562 l 1
 69.796875 225.697265625 l 2
 47.83203125 101.131835938 130.509765625 0 254.309570312 0 c 1
 576.291992188 0 l 2
 717.084960938 0 851.672851562 115.014648438 876.65234375 256.678710938 c 1
 876.650390625 256.677734375 967.422851562 771.466796875 967.422851562 771.466796875 c 1
 720.512695312 771.466796875 l 1
 635.331054688 288.376953125 l 2
 627.068359375 241.51953125 582.55078125 203.475585938 535.981445312 203.475585938 c 1
 535.982421875 203.4765625 392.59375 203.475585938 392.59375 203.475585938 c 2
 348.549804688 203.475585938 319.133789062 239.454101562 326.9453125 283.770507812 c 1
 326.947265625 283.770507812 335.111328125 330.079101562 335.111328125 330.079101562 c 1
EndSplineSet
EndChar

StartChar: K
Encoding: 75 75 10
Width: 1039
Flags: HW
LayerCount: 2
Fore
SplineSet
166.030273438 771.466796875 m 1
 30 0 l 1
 275.125 0 l 1
 327.360351562 296.2421875 l 1
 413.473632812 296.2421875 l 1
 486.923828125 208.518554688 l 1
 661.739257812 -0.2646484375 l 1
 1007.40722656 -0.2646484375 l 1
 1009.98925781 1.9794921875 l 1
 689.590820312 384.633789062 l 1
 1128.29980469 765.862304688 l 1
 1123.60644531 771.466796875 l 1
 791.454101562 771.466796875 l 1
 467.220703125 489.71484375 l 1
 361.474609375 489.71484375 l 1
 411.155273438 771.466796875 l 1
 166.030273438 771.466796875 l 1
EndSplineSet
EndChar

StartChar: L
Encoding: 76 76 11
Width: 786
Flags: HW
LayerCount: 2
Fore
SplineSet
166.030273438 771.466796875 m 5
 65.1796875 199.513671875 l 5
 30 0 l 5
 275.125 0 l 5
 756.58203125 0 l 5
 791.76171875 199.513671875 l 5
 310.3046875 199.513671875 l 5
 411.155273438 771.466796875 l 5
 166.030273438 771.466796875 l 5
EndSplineSet
EndChar

StartChar: M
Encoding: 77 77 12
Width: 1382
Flags: HW
LayerCount: 2
Fore
SplineSet
166.030273438 771.466796875 m 1
 30 0 l 1
 275.125 0 l 1
 362.56640625 495.903320312 l 1
 626.140625 0 l 1
 760.172851562 0 l 1
 1194.30371094 491.016601562 l 1
 1107.72460938 0 l 1
 1352.84960938 0 l 1
 1488.87988281 771.466796875 l 1
 1243.75488281 771.466796875 l 1
 1141.32714844 771.466796875 l 1
 751.4296875 330.482421875 l 1
 517.045898438 771.466796875 l 1
 411.155273438 771.466796875 l 1
 166.030273438 771.466796875 l 1
EndSplineSet
EndChar

StartChar: N
Encoding: 78 78 13
Width: 1112
Flags: HW
LayerCount: 2
Fore
SplineSet
165.193359375 766.720703125 m 1
 30 0 l 1
 275.125 0 l 1
 373.565429688 558.28515625 l 1
 756.63671875 0 l 1
 837.380859375 0 l 1
 872.78125 0 l 1
 1082.50390625 0 l 1
 1217.69726562 766.720703125 l 1
 972.57421875 766.720703125 l 1
 875.743164062 217.5625 l 1
 498.940429688 766.720703125 l 1
 410.318359375 766.720703125 l 1
 165.193359375 766.720703125 l 1
EndSplineSet
EndChar

StartChar: O
Encoding: 79 79 14
Width: 1097
Flags: HW
HStem: 0 182.942<314.801 374.938 722.97 783.105> 583.783 182.938<314.801 374.938 722.97 783.105>
LayerCount: 2
Fore
SplineSet
646.3515625 770 m 4
 564.188476562 769.856445312 481.801757812 765.344726562 398.591796875 753.783203125 c 4
 272.396484375 736.248046875 172.450195312 654.379882812 134.602539062 534.173828125 c 4
 103.317382812 434.797851562 85.4658203125 334.934570312 81.7724609375 234.560546875 c 4
 77.3544921875 114.369140625 148.3046875 32.4853515625 268.31640625 14.951171875 c 4
 359.760742188 1.591796875 453.418945312 -2.375 548.780273438 -0.9658203125 c 4
 643.645507812 -2.3701171875 738.704101562 1.591796875 834.858398438 14.951171875 c 4
 961.0546875 32.4853515625 1060.88183594 114.369140625 1098.84667969 234.560546875 c 4
 1130.55175781 334.934570312 1147.92089844 434.797851562 1151.67675781 534.173828125 c 4
 1156.22363281 654.379882812 1085.14648438 736.248046875 965.133789062 753.783203125 c 4
 886 765.344726562 805.211914062 769.8984375 723.092773438 770 c 4
 697.44921875 769.63671875 671.934570312 770 646.3515625 770 c 4
628.081054688 569.232421875 m 4
 642.243164062 569.236328125 656.370117188 569.05859375 670.560546875 569.232421875 c 4
 716.014648438 569.232421875 760.771484375 566.99609375 804.715820312 561.452148438 c 4
 871.36328125 553.048828125 911.76953125 513.809570312 910.826171875 456.188476562 c 4
 910.044921875 408.551757812 901.737304688 360.681640625 885.501953125 312.567382812 c 4
 866.05859375 254.953125 811.879882812 215.701171875 742.268554688 207.295898438 c 4
 689.229492188 200.892578125 636.677734375 198.991210938 584.157226562 199.666992188 c 4
 531.3984375 198.986328125 479.516601562 200.897460938 428.735351562 207.295898438 c 4
 362.088867188 215.701171875 321.751953125 254.953125 322.630859375 312.567382812 c 4
 323.364257812 360.681640625 331.938476562 408.551757812 347.955078125 456.188476562 c 4
 367.328125 513.809570312 421.572265625 553.048828125 491.182617188 561.452148438 c 4
 537.081054688 566.99609375 582.6171875 569.174804688 628.081054688 569.232421875 c 4
EndSplineSet
EndChar

StartChar: P
Encoding: 80 80 15
Width: 981
Flags: HW
LayerCount: 2
Fore
SplineSet
165.193359375 766.720703125 m 5
 30 0 l 5
 267.240234375 0 l 5
 301.880859375 196.458984375 l 5
 800.377929688 196.458984375 l 6
 903.473632812 196.458984375 1001.10546875 279.454101562 1019.28417969 382.551757812 c 6
 1054.20996094 580.627929688 l 6
 1072.38964844 683.724609375 1004.02636719 766.720703125 900.930664062 766.720703125 c 6
 402.43359375 766.720703125 l 5
 400.766601562 766.720703125 l 5
 165.193359375 766.720703125 l 5
367.826171875 570.451171875 m 5
 760.231445312 570.451171875 l 6
 792.362304688 570.451171875 813.670898438 544.588867188 808.005859375 512.45703125 c 6
 797.12109375 450.727539062 l 6
 791.455078125 418.596679688 761.025390625 392.728515625 728.89453125 392.728515625 c 6
 336.489257812 392.728515625 l 5
 367.826171875 570.451171875 l 5
EndSplineSet
EndChar

StartChar: Q
Encoding: 81 81 16
Width: 1233
Flags: HW
HStem: 0 182.942<314.8 374.938 722.969 784.194> 583.783 182.938<314.8 374.938 722.969 783.105>
LayerCount: 2
Fore
SplineSet
646.3515625 770 m 4
 564.190429688 769.856445312 481.803710938 765.344726562 398.591796875 753.783203125 c 4
 272.396484375 736.249023438 172.44921875 654.379882812 134.603515625 534.173828125 c 4
 103.31640625 434.797851562 85.4658203125 334.934570312 81.7734375 234.560546875 c 4
 77.3525390625 114.369140625 148.3046875 32.4853515625 268.31640625 14.951171875 c 4
 359.758789062 1.5908203125 453.419921875 -2.3759765625 548.780273438 -0.966796875 c 4
 643.646484375 -2.37109375 738.702148438 1.5908203125 834.857421875 14.951171875 c 4
 893.522460938 23.1025390625 946.365234375 45.3115234375 990.069335938 78.66015625 c 5
 1106.52832031 -1.234375 l 5
 1230.74414062 156.3359375 l 5
 1101.8828125 244.73828125 l 5
 1131.578125 341.68359375 1148.04785156 438.159179688 1151.67773438 534.173828125 c 4
 1156.22363281 654.379882812 1085.14550781 736.249023438 965.1328125 753.783203125 c 4
 885.999023438 765.344726562 805.213867188 769.8984375 723.095703125 770 c 4
 697.44921875 769.63671875 671.934570312 770 646.3515625 770 c 4
628.083984375 569.232421875 m 4
 642.2421875 569.232421875 656.372070312 569.05859375 670.560546875 569.232421875 c 4
 716.016601562 569.232421875 760.772460938 566.997070312 804.717773438 561.453125 c 4
 871.365234375 553.048828125 911.770507812 513.80859375 910.825195312 456.1875 c 4
 910.415039062 431.188476562 907.875 406.125 903.26171875 380.99609375 c 5
 785.887695312 461.517578125 l 5
 661.671875 303.947265625 l 5
 787.24609375 217.80078125 l 5
 773.194335938 212.815429688 758.161132812 209.21484375 742.270507812 207.296875 c 4
 689.23046875 200.893554688 636.676757812 198.990234375 584.157226562 199.666015625 c 4
 531.399414062 198.985351562 479.516601562 200.897460938 428.735351562 207.296875 c 4
 362.08984375 215.702148438 321.752929688 254.953125 322.629882812 312.56640625 c 4
 323.362304688 360.680664062 331.935546875 408.55078125 347.954101562 456.1875 c 4
 367.330078125 513.80859375 421.573242188 553.048828125 491.182617188 561.453125 c 4
 537.083007812 566.997070312 582.618164062 569.174804688 628.083984375 569.232421875 c 4
EndSplineSet
EndChar

StartChar: R
Encoding: 82 82 17
Width: 981
Flags: HW
VStem: 758.799 239.717<0.0537109 143.653 410.248 482.82 503.511 557.867>
LayerCount: 2
Fore
SplineSet
165.771484375 770 m 5
 29.7822265625 -1.2353515625 l 5
 267.024414062 -1.2353515625 l 5
 301.869140625 196.379882812 l 5
 549.845703125 196.379882812 l 5
 678.3671875 -0.7734375 l 5
 951.614257812 -1.2353515625 l 5
 838.198242188 200.104492188 l 5
 926.3984375 217.341796875 1003.43945312 292.6796875 1019.46582031 383.568359375 c 6
 1054.59765625 582.810546875 l 6
 1072.8828125 686.514648438 1004.60839844 770 901.51171875 770 c 6
 403.013671875 770 l 5
 401.34765625 770 l 5
 165.771484375 770 l 5
368.203125 572.575195312 m 5
 760.607421875 572.575195312 l 6
 792.740234375 572.575195312 814.021484375 546.559570312 808.323242188 514.240234375 c 6
 797.374023438 452.145507812 l 6
 791.674804688 419.825195312 761.217773438 393.8046875 729.084960938 393.8046875 c 6
 336.680664062 393.8046875 l 5
 368.203125 572.575195312 l 5
EndSplineSet
EndChar

StartChar: S
Encoding: 83 83 18
Width: 1036
Flags: HW
HStem: 0 179.096<292.341 340.725 700.404 748.789> 309.545 147.633<285.885 321.197 714.975 750.288> 587.628 179.095<287.384 335.768 695.447 743.831>
VStem: 30 246.787<199.397 262.036 470.013 573.037> 764.344 241.828<199.397 291.307 504.687 566.905>
LayerCount: 2
Fore
SplineSet
395.776367188 766.72265625 m 6
 268.034179688 766.72265625 147.217773438 664.772460938 124.887695312 538.134765625 c 4
 102.557617188 411.495117188 187.420898438 309.544921875 315.163085938 309.544921875 c 6
 769.555664062 309.544921875 l 6
 796.751953125 303.03515625 813.362304688 277.999023438 808.048828125 247.864257812 c 6
 807.099609375 242.479492188 l 6
 800.908203125 207.365234375 767.405273438 179.095703125 731.983398438 179.095703125 c 6
 372.303710938 179.095703125 l 6
 336.881835938 179.095703125 313.3515625 207.365234375 319.54296875 242.479492188 c 6
 320.4921875 247.864257812 l 6
 321.385742188 252.932617188 322.909179688 257.836914062 324.866210938 262.555664062 c 5
 78.8271484375 262.555664062 l 6
 75.220703125 251.475585938 72.3427734375 240.139648438 70.306640625 228.588867188 c 4
 47.9765625 101.950195312 132.845703125 0 260.58984375 0 c 6
 775.58984375 0 l 6
 903.33203125 0 1024.1484375 101.950195312 1046.47851562 228.588867188 c 4
 1068.80761719 355.227539062 983.944335938 457.177734375 856.202148438 457.177734375 c 6
 401.809570312 457.177734375 l 6
 374.614257812 463.688476562 358.004882812 488.723632812 363.319335938 518.859375 c 6
 364.268554688 524.243164062 l 6
 370.459960938 559.358398438 403.959960938 587.627929688 439.381835938 587.627929688 c 6
 799.061523438 587.627929688 l 6
 834.483398438 587.627929688 858.014648438 559.358398438 851.823242188 524.243164062 c 6
 850.874023438 518.859375 l 6
 849.98046875 513.791015625 848.45703125 508.88671875 846.5 504.166992188 c 5
 1092.5390625 504.166992188 l 6
 1096.14550781 515.248046875 1099.02246094 526.583984375 1101.05957031 538.134765625 c 4
 1123.38964844 664.772460938 1038.52050781 766.72265625 910.778320312 766.72265625 c 6
 395.776367188 766.72265625 l 6
EndSplineSet
EndChar

StartChar: T
Encoding: 84 84 19
Width: 964
Flags: HW
LayerCount: 2
Fore
SplineSet
166.057617188 771.62109375 m 5
 133.680664062 588 l 5
 468.833007812 588 l 5
 365.220703125 0.38671875 l 5
 604.0390625 0.38671875 l 5
 707.651367188 588 l 5
 1038.34277344 588 l 5
 1070.71972656 771.62109375 l 5
 740.028320312 771.62109375 l 5
 501.209960938 771.62109375 l 5
 166.057617188 771.62109375 l 5
EndSplineSet
EndChar

StartChar: U
Encoding: 85 85 20
Width: 1031
Flags: HW
LayerCount: 2
Fore
SplineSet
165.771484375 770 m 5
 69.5673828125 224.396484375 l 6
 47.609375 99.8671875 130.29296875 -1.234375 254.092773438 -1.234375 c 5
 254.091796875 -1.2333984375 785.993164062 -1.234375 785.993164062 -1.234375 c 6
 904.90625 -1.234375 1018.57128906 95.8759765625 1039.66210938 215.489257812 c 4
 1137.4375 770 l 5
 899.6953125 770 l 5
 820.427734375 320.450195312 l 6
 806.094726562 239.162109375 745.217773438 173.265625 684.453125 173.266601562 c 6
 412.838867188 173.266601562 l 6
 349.577148438 173.265625 310.389648438 241.868164062 325.3125 326.495117188 c 6
 403.513671875 770 l 5
 165.771484375 770 l 5
EndSplineSet
EndChar

StartChar: V
Encoding: 86 86 21
Width: 1198
Flags: HW
LayerCount: 2
Fore
SplineSet
165.948242188 771 m 1
 463.435546875 -0.234375 l 1
 489.408203125 -0.234375 l 1
 708.5546875 -0.234375 l 1
 734.53125 -0.234375 l 1
 1303.99121094 771 l 1
 1058.87207031 771 l 1
 633.359375 194.715820312 l 1
 411.073242188 771 l 1
 165.948242188 771 l 1
EndSplineSet
EndChar

StartChar: W
Encoding: 87 87 22
Width: 1504
Flags: HW
LayerCount: 2
Fore
SplineSet
165.948242188 771 m 1
 266.99609375 -0.365234375 l 1
 284.615234375 -0.365234375 l 1
 524.68359375 -0.365234375 l 1
 542.314453125 -0.365234375 l 1
 851.27734375 561.116210938 l 1
 962.224609375 -0.365234375 l 1
 979.85546875 -0.365234375 l 1
 1219.921875 -0.365234375 l 1
 1237.54882812 -0.365234375 l 1
 1610.61621094 771 l 1
 1415.72558594 771 l 1
 1122.84765625 194.619140625 l 1
 1004.68066406 771 l 1
 966.764648438 771 l 1
 809.799804688 771 l 1
 771.883789062 771 l 1
 450.453125 194.619140625 l 1
 360.840820312 771 l 1
 165.948242188 771 l 1
EndSplineSet
EndChar

StartChar: X
Encoding: 88 88 23
Width: 1218
Flags: HW
LayerCount: 2
Fore
SplineSet
165.948242188 771 m 1
 530.9375 385.380859375 l 1
 29.958984375 -0.2353515625 l 1
 322.6171875 -0.2353515625 l 1
 654.291015625 255.05859375 l 1
 895.927734375 -0.2353515625 l 1
 1188.5859375 -0.2353515625 l 1
 823.595703125 385.380859375 l 1
 1324.57519531 771 l 1
 1031.91699219 771 l 1
 700.243164062 515.704101562 l 1
 458.606445312 771 l 1
 165.948242188 771 l 1
EndSplineSet
EndChar

StartChar: Y
Encoding: 89 89 24
Width: 1180
Flags: HW
LayerCount: 2
Fore
SplineSet
165.948242188 771 m 1
 526.127929688 279.328125 l 1
 518.3828125 235.401367188 l 1
 476.833984375 -0.234375 l 1
 699.655273438 -0.234375 l 1
 748.162109375 274.865234375 l 1
 1286.57910156 771 l 1
 1015.18652344 771 l 1
 670.211914062 453.119140625 l 1
 437.33984375 771 l 1
 165.948242188 771 l 1
EndSplineSet
EndChar

StartChar: Z
Encoding: 90 90 25
Width: 960
Flags: HW
LayerCount: 2
Fore
SplineSet
1066.48925781 771 m 5
 165.948242188 771 l 5
 134.276367188 591.381835938 l 5
 790.001953125 591.381835938 l 5
 72.0625 238.548828125 l 5
 61.6298828125 179.3828125 l 5
 57.056640625 153.444335938 l 5
 29.958984375 -0.234375 l 5
 930.5 -0.234375 l 5
 962.170898438 179.3828125 l 5
 317.165039062 179.3828125 l 5
 1023.3671875 526.443359375 l 5
 1034.81738281 591.381835938 l 5
 1066.48925781 771 l 5
EndSplineSet
EndChar

StartChar: a
Encoding: 97 97 26
Width: 785
Flags: HW
LayerCount: 2
Fore
SplineSet
339.900390625 540 m 6
 233.626953125 539.795898438 127.852539062 466.5546875 94.8408203125 367.728515625 c 5
 301.125976562 367.728515625 l 5
 327.203125 399.418945312 361.580078125 417.422851562 391.385742188 417.549804688 c 6
 541.876953125 417.549804688 l 6
 658.791015625 417.549804688 638.653320312 359.333007812 625.670898438 284.616210938 c 5
 608.013671875 309.626953125 575.881835938 326.124023438 533.126953125 331.04296875 c 4
 489.01953125 336.1171875 444.139648438 338.115234375 398.611328125 338.159179688 c 4
 384.3984375 338.000976562 370.24609375 338.159179688 356.061523438 338.159179688 c 4
 310.514648438 338.095703125 264.935546875 336.1171875 219.0390625 331.04296875 c 4
 149.432617188 323.346679688 95.685546875 287.413085938 77.1494140625 234.653320312 c 4
 61.8271484375 191.037109375 53.96484375 147.205078125 53.9619140625 103.149414062 c 4
 53.9609375 50.396484375 94.966796875 14.45703125 161.859375 6.7607421875 c 4
 212.825195312 0.896484375 264.83203125 -0.8427734375 317.670898438 -0.224609375 c 4
 370.293945312 -0.8408203125 422.911132812 0.896484375 475.947265625 6.7607421875 c 4
 521.594726562 11.8076171875 560.309570312 29.0634765625 586.85546875 55.1806640625 c 5
 577.0859375 -0.224609375 l 5
 755.9453125 -0.224609375 l 5
 815.612304688 338.159179688 l 6
 835.267578125 449.6328125 755.108398438 540 636.571289062 540 c 6
 339.900390625 540 l 6
324.786132812 209.685546875 m 5
 324.7890625 209.685546875 l 5
 542.57421875 209.685546875 l 5
 539.740234375 188.926757812 531.24609375 144.627929688 531.24609375 144.627929688 c 6
 522.169921875 122.830078125 500.134765625 119.44140625 468.422851562 117.290039062 c 4
 444.259765625 115.651367188 425.440429688 115.165039062 395.98046875 115.336914062 c 4
 366.461914062 115.163085938 346.100585938 115.650390625 308.499023438 117.290039062 c 4
 259.1484375 119.44140625 226.424804688 129.489257812 222.248046875 144.23828125 c 4
 218.762695312 156.5546875 221.138671875 169.478515625 228.908203125 182.004882812 c 4
 238.306640625 197.157226562 274.670898438 207.474609375 324.791015625 209.685546875 c 5
 324.786132812 209.685546875 l 5
EndSplineSet
EndChar

StartChar: b
Encoding: 98 98 27
Width: 810
Flags: HW
LayerCount: 2
Fore
SplineSet
165.418945312 768 m 5
 30.2255859375 1.279296875 l 5
 228.038085938 1.279296875 l 5
 237.418945312 54.4833984375 l 5
 270.1796875 21.3203125 316.880859375 1.279296875 372.000976562 1.279296875 c 6
 560.307617188 1.279296875 l 6
 682.625976562 1.279296875 798.463867188 99.7529296875 820.032226562 222.0703125 c 6
 836.748046875 316.87109375 l 6
 858.31640625 439.189453125 777.205078125 537.663085938 654.88671875 537.663085938 c 6
 466.580078125 537.663085938 l 6
 411.459960938 537.663085938 357.690429688 517.622070312 313.235351562 484.458007812 c 5
 363.231445312 768 l 5
 165.418945312 768 l 5
390.447265625 384.639648438 m 6
 558.608398438 384.639648438 l 6
 611.134765625 384.639648438 645.963867188 342.354492188 636.702148438 289.828125 c 6
 629.5234375 249.114257812 l 6
 620.26171875 196.586914062 570.520507812 154.301757812 517.994140625 154.301757812 c 6
 349.833007812 154.301757812 l 6
 297.306640625 154.301757812 262.4765625 196.586914062 271.73828125 249.114257812 c 6
 278.916992188 289.828125 l 6
 288.178710938 342.354492188 337.920898438 384.639648438 390.447265625 384.639648438 c 6
EndSplineSet
EndChar

StartChar: c
Encoding: 99 99 28
Width: 796
Flags: HW
LayerCount: 2
Fore
SplineSet
467.146484375 540 m 4
 408.688476562 539.897460938 350.080078125 536.739257812 290.899414062 528.638671875 c 4
 201.145507812 516.353515625 130.19140625 458.994140625 103.493164062 374.775390625 c 4
 81.4228515625 305.151367188 68.9150390625 235.184570312 66.4794921875 164.860351562 c 4
 63.56640625 80.65234375 114.204101562 23.2822265625 199.625976562 10.998046875 c 4
 264.7109375 1.6376953125 331.35546875 -1.1416015625 399.200195312 -0.154296875 c 4
 466.700195312 -1.138671875 534.325195312 1.6376953125 602.711914062 10.998046875 c 4
 692.463867188 23.2822265625 763.333984375 80.65234375 790.119140625 164.860351562 c 4
 795.78125 182.66796875 800.77734375 200.452148438 805.143554688 218.212890625 c 5
 637.669921875 218.212890625 l 5
 623.56640625 178.5703125 585.4375 151.583984375 536.466796875 145.758789062 c 4
 498.743164062 141.272460938 461.35546875 139.938476562 423.986328125 140.413085938 c 4
 386.452148438 139.935546875 349.53515625 141.275390625 313.393554688 145.758789062 c 4
 265.956054688 151.647460938 237.184570312 179.147460938 237.698242188 219.512695312 c 4
 238.127929688 253.22265625 244.135742188 286.76171875 255.44140625 320.13671875 c 4
 269.115234375 360.506835938 307.631835938 388 357.145507812 393.887695312 c 4
 389.791992188 397.772460938 422.184570312 399.297851562 454.53125 399.338867188 c 4
 464.606445312 399.340820312 474.658203125 399.217773438 484.752929688 399.338867188 c 4
 517.09375 399.338867188 548.940429688 397.772460938 580.21875 393.887695312 c 4
 611.517578125 390.002929688 634.63671875 376.666992188 646.635742188 356.478515625 c 5
 826.161132812 356.478515625 l 5
 826.52734375 362.579101562 826.915039062 368.680664062 827.1328125 374.775390625 c 4
 830.133789062 458.994140625 779.405273438 516.353515625 693.985351562 528.638671875 c 4
 637.661132812 536.739257812 580.171875 539.928710938 521.74609375 540 c 4
 503.500976562 539.747070312 485.345703125 540 467.146484375 540 c 4
EndSplineSet
EndChar

StartChar: d
Encoding: 100 100 29
Width: 810
Flags: HW
LayerCount: 2
Fore
SplineSet
916.118164062 767 m 5
 718.305664062 767 l 5
 668.309570312 483.458007812 l 5
 635.548828125 516.622070312 588.84765625 536.663085938 533.727539062 536.663085938 c 6
 345.420898438 536.663085938 l 6
 223.102539062 536.663085938 107.264648438 438.190429688 85.6962890625 315.872070312 c 6
 68.98046875 221.0703125 l 6
 47.4130859375 98.7529296875 128.5234375 0.279296875 250.841796875 0.279296875 c 6
 439.1484375 0.279296875 l 6
 494.268554688 0.279296875 548.037109375 20.3203125 592.493164062 53.484375 c 5
 583.111328125 0.279296875 l 5
 780.923828125 0.279296875 l 5
 916.118164062 767 l 5
555.896484375 383.639648438 m 6
 608.422851562 383.639648438 643.252929688 341.35546875 633.991210938 288.829101562 c 6
 626.811523438 248.114257812 l 6
 617.549804688 195.586914062 567.807617188 153.302734375 515.28125 153.302734375 c 6
 347.120117188 153.302734375 l 6
 294.59375 153.302734375 259.764648438 195.586914062 269.026367188 248.114257812 c 6
 276.206054688 288.829101562 l 6
 285.467773438 341.35546875 335.208984375 383.639648438 387.735351562 383.639648438 c 6
 555.896484375 383.639648438 l 6
EndSplineSet
EndChar

StartChar: e
Encoding: 101 101 30
Width: 796
Flags: HW
LayerCount: 2
Fore
SplineSet
466.46875 540 m 6
 408.126953125 539.897460938 349.63671875 536.739257812 290.569335938 528.638671875 c 4
 200.98828125 516.353515625 130.154296875 458.994140625 103.478515625 374.775390625 c 4
 81.4267578125 305.151367188 68.9189453125 235.18359375 66.46484375 164.859375 c 4
 63.5283203125 80.6513671875 114.046875 23.283203125 199.295898438 10.998046875 c 4
 264.248046875 1.6376953125 330.76171875 -1.140625 398.473632812 -0.154296875 c 4
 465.838867188 -1.1376953125 533.329101562 1.6376953125 601.583984375 10.998046875 c 4
 691.1640625 23.283203125 760.502929688 72.6513671875 787.26171875 156.859375 c 4
 788.291015625 160.096679688 789.1875 163.329101562 790.172851562 166.564453125 c 5
 604.495117188 166.564453125 l 5
 586.116210938 151.184570312 563.2578125 149.063476562 535.517578125 145.7578125 c 4
 497.864257812 141.271484375 460.5546875 139.940429688 423.259765625 140.4140625 c 4
 385.797851562 139.9375 348.950195312 141.274414062 312.883789062 145.7578125 c 4
 274.5859375 150.521484375 250.263671875 179.439453125 241.96875 207.859375 c 5
 435.051757812 207.859375 l 5
 628.333007812 207.859375 l 5
 800.095703125 207.859375 l 5
 804.498046875 224.974609375 806.703125 232.072265625 810.271484375 249.15234375 c 5
 810.309570312 249.15234375 l 5
 810.41015625 249.72265625 810.509765625 250.291992188 810.6484375 250.861328125 c 4
 811.22265625 253.625 811.807617188 256.389648438 812.359375 259.15234375 c 5
 812.24609375 259.15234375 l 5
 812.666015625 261.317382812 813.108398438 263.483398438 813.504882812 265.646484375 c 6
 815.01953125 274.23828125 l 6
 817.171875 286.890625 818.775390625 299.525390625 820.223632812 312.15234375 c 5
 820.314453125 312.15234375 l 5
 820.48046875 313.694335938 820.6796875 315.805664062 820.854492188 317.451171875 c 4
 820.953125 318.349609375 821.077148438 319.249023438 821.174804688 320.146484375 c 6
 821.12890625 320.146484375 l 5
 822.991210938 337.600585938 825.139648438 358.912109375 825.709960938 374.775390625 c 4
 828.734375 458.994140625 778.127929688 516.353515625 692.879882812 528.638671875 c 4
 636.66796875 536.739257812 579.298828125 539.928710938 520.98828125 540 c 4
 502.776367188 539.747070312 484.658203125 540 466.491210938 540 c 6
 466.46875 540 l 6
453.831054688 399.337890625 m 4
 463.885742188 399.340820312 473.919921875 399.216796875 483.9921875 399.337890625 c 4
 516.270507812 399.337890625 548.055664062 397.770507812 579.26953125 393.88671875 c 4
 623.444335938 388.392578125 650.18359375 357.112304688 653.098632812 320.154296875 c 5
 290.323242188 320.15234375 l 5
 255.11328125 320.15234375 l 5
 268.778320312 360.514648438 307.224609375 387.999023438 356.635742188 393.88671875 c 4
 389.217773438 397.770507812 421.547851562 399.297851562 453.831054688 399.337890625 c 4
EndSplineSet
EndChar

StartChar: f
Encoding: 102 102 31
Width: 531
Flags: HW
LayerCount: 2
Fore
SplineSet
411.385742188 751.997070312 m 6
 393.849609375 751.705078125 376.400390625 748.248046875 359.946289062 742.278320312 c 4
 302.913085938 722.615234375 255.813476562 672.11328125 244.971679688 612.83203125 c 4
 244.905273438 612.80078125 238.703125 577.282226562 238.703125 577.282226562 c 5
 230.641601562 531.563476562 l 5
 123.728515625 531.563476562 l 5
 102.462890625 410.95703125 l 5
 209.375976562 410.95703125 l 5
 136.900390625 -0.0693359375 l 5
 321.201171875 -0.0693359375 l 5
 393.676757812 410.95703125 l 5
 573.609375 410.95703125 l 5
 594.875 531.563476562 l 5
 414.942382812 531.563476562 l 5
 422.969726562 577.084960938 l 5
 423.004882812 577.28515625 l 6
 426.46484375 596.905273438 445.515625 612.8359375 465.518554688 612.8359375 c 5
 465.516601562 612.834960938 609.206054688 612.8359375 609.206054688 612.8359375 c 5
 633.744140625 752 l 5
 453.811523438 752 l 5
 411.385742188 751.997070312 l 6
EndSplineSet
EndChar

StartChar: g
Encoding: 103 103 32
Width: 806
Flags: HW
LayerCount: 2
Fore
SplineSet
399.146484375 514 m 4
 351.530273438 513.909179688 303.719726562 510.930664062 255.333984375 503.303710938 c 4
 181.952148438 491.73828125 121.991210938 432.73828125 98.3583984375 353.452148438 c 0
 78.82421875 287.905273438 67.0693359375 222.03515625 63.51171875 155.829101562 c 0
 59.255859375 76.5517578125 99.2197265625 22.5419921875 168.5234375 10.9765625 c 0
 221.327148438 2.1650390625 275.55078125 -0.451171875 330.834960938 0.4775390625 c 0
 385.793945312 -0.4482421875 440.9375 2.1650390625 496.850585938 10.9765625 c 0
 532.083984375 16.529296875 563.940429688 31.9541015625 590.227539062 55.173828125 c 1
 576.88671875 -20.4853515625 l 1
 576.649414062 -20.4853515625 l 1
 576.49609375 -22.2109375 576.271484375 -23.939453125 575.97265625 -25.6708984375 c 0
 568.995117188 -64.8818359375 523.528320312 -116.803710938 478.225585938 -117.33984375 c 2
 246.400390625 -117.33984375 l 2
 207.692382812 -117.271484375 224.891601562 -67.830078125 230.828125 -31.1572265625 c 1
 54.8466796875 -31.1572265625 l 1
 43.1767578125 -97.33984375 l 1
 41.4140625 -107.340820312 l 2
 25.6865234375 -196.520507812 84.3291015625 -268.81640625 172.393554688 -268.817382812 c 2
 560.13671875 -268.817382812 l 2
 653.655273438 -268.815429688 743.002929688 -192.04296875 759.701171875 -97.33984375 c 2
 867.497070312 514 l 5
 671.130859375 514 l 5
 660.576171875 454.138671875 l 1
 642.467773438 477.341796875 616.921875 497.75390625 583.661132812 503.303710938 c 4
 537.961914062 510.930664062 491.212890625 513.932617188 443.624023438 514 c 4
 428.754882812 513.7578125 413.97265625 514 399.146484375 514 c 4
457.474609375 369.934570312 m 0
 465.852539062 369.934570312 474.208007812 369.828125 482.602539062 369.934570312 c 0
 509.499023438 369.934570312 535.967773438 368.541015625 561.938476562 365.083984375 c 0
 601.326171875 359.842773438 625.01171875 335.3671875 624.127929688 299.4296875 c 0
 623.395507812 269.720703125 618.209960938 239.865234375 608.333984375 209.857421875 c 0
 596.504882812 173.92578125 564.227539062 149.446289062 522.991210938 144.203125 c 0
 491.57421875 140.209960938 460.469726562 139.02734375 429.3984375 139.447265625 c 0
 398.1796875 139.025390625 367.490234375 140.209960938 337.481445312 144.203125 c 0
 298.094726562 149.446289062 274.450195312 173.92578125 275.29296875 209.857421875 c 0
 275.999023438 239.865234375 281.33984375 269.720703125 291.086914062 299.4296875 c 0
 302.877929688 335.3671875 335.193359375 359.842773438 376.428710938 365.083984375 c 0
 403.6171875 368.541015625 430.571289062 369.887695312 457.474609375 369.934570312 c 0
EndSplineSet
EndChar

StartChar: h
Encoding: 104 104 33
Width: 783
Flags: HW
LayerCount: 2
Fore
SplineSet
165.243164062 767 m 5
 30.048828125 0.279296875 l 5
 228.336914062 0.279296875 l 5
 286.01171875 327.368164062 l 5
 324.623046875 362.264648438 369.884765625 383.376953125 415.02734375 383.639648438 c 5
 414.87109375 383.555664062 562.615234375 383.639648438 562.615234375 383.639648438 c 6
 605.499023438 383.639648438 632.240234375 337.825195312 622.290039062 281.395507812 c 5
 622.287109375 281.395507812 572.721679688 0.279296875 572.721679688 0.279296875 c 5
 753.37890625 0.279296875 l 5
 817.006835938 361.129882812 l 6
 836.604492188 472.275390625 754.077148438 562.51171875 632.828125 562.51171875 c 5
 529.1171875 562.51171875 l 6
 449.095703125 562.387695312 371.576171875 530.650390625 312.94140625 480.090820312 c 4
 312.897460938 479.987304688 363.53125 767 363.53125 767 c 5
 165.243164062 767 l 5
EndSplineSet
EndChar

StartChar: i
Encoding: 105 105 34
Width: 265
Flags: HW
LayerCount: 2
Fore
SplineSet
163.37890625 752 m 5
 130.2578125 564.159179688 l 5
 335.004882812 564.159179688 l 5
 368.125976562 752 l 5
 163.37890625 752 l 5
122.479492188 524.474609375 m 5
 30.7685546875 -0.0712890625 l 5
 235.515625 -0.0712890625 l 5
 327.2265625 524.474609375 l 5
 122.479492188 524.474609375 l 5
EndSplineSet
EndChar

StartChar: j
Encoding: 106 106 35
Width: 394
Flags: HW
LayerCount: 2
Fore
SplineSet
294.120117188 760 m 5
 260.7890625 570.97265625 l 5
 465.537109375 570.97265625 l 5
 498.868164062 760 l 5
 294.120117188 760 l 5
252.966796875 531.0390625 m 5
 168.213867188 46.50390625 l 5
 168.22265625 46.556640625 l 5
 168.22265625 46.556640625 l 5
 164.014648438 23.4453125 142.3671875 4.359375 118.538085938 2.6201171875 c 6
 30.4267578125 2.4189453125 l 5
 -4.841796875 -197.59765625 l 5
 125.337890625 -197.298828125 l 6
 238.426757812 -197.041992188 345.954101562 -107.307617188 365.436523438 3.18359375 c 5
 365.426757812 3.18359375 457.73046875 531.041992188 457.73046875 531.041992188 c 5
 252.966796875 531.0390625 l 5
EndSplineSet
EndChar

StartChar: k
Encoding: 107 107 36
Width: 703
Flags: HW
LayerCount: 2
Fore
SplineSet
165.243164062 767 m 5
 128.202148438 556.930664062 l 5
 118.459960938 501.6796875 l 5
 41.7158203125 66.44140625 l 5
 31.9736328125 11.1904296875 l 5
 30.048828125 0.279296875 l 5
 221.556640625 0.279296875 l 5
 230.928710938 53.427734375 l 5
 261.052734375 224.270507812 l 5
 311.9921875 224.270507812 l 5
 355.736328125 162.513671875 l 5
 470.642578125 0.279296875 l 5
 673.841796875 0.279296875 l 5
 477.592773438 277.370117188 l 5
 771.559570312 554.4609375 l 5
 568.360351562 554.4609375 l 5
 396.241210938 392.2265625 l 5
 371.532226562 368.936523438 l 5
 286.561523438 368.936523438 l 5
 287.495117188 374.233398438 l 5
 312.26171875 514.693359375 l 5
 356.750976562 767 l 5
 165.243164062 767 l 5
271.208007812 281.86328125 m 5
 274.385742188 277.370117188 l 5
 269.623046875 272.875 l 5
 270.814453125 279.633789062 l 5
 271.208007812 281.86328125 l 5
EndSplineSet
EndChar

StartChar: l
Encoding: 108 108 37
Width: 251
Flags: HW
LayerCount: 2
Fore
SplineSet
165.243164062 767 m 5
 30.048828125 0.2744140625 l 5
 221.556640625 0.2744140625 l 5
 356.750976562 767 l 5
 165.243164062 767 l 5
EndSplineSet
EndChar

StartChar: m
Encoding: 109 109 38
Width: 1215
Flags: HW
LayerCount: 2
Fore
SplineSet
534.735351562 540 m 5
 449.114257812 539.927734375 361.864257812 506.64453125 295.533203125 448.70703125 c 5
 311.630859375 540 l 5
 125.216796875 540 l 5
 30.439453125 -0.3427734375 l 5
 216.853515625 -0.3427734375 l 5
 260.536132812 250.227539062 l 6
 272.883789062 319.806640625 339.734375 375.801757812 410.494140625 375.801757812 c 6
 464.028320312 375.801757812 l 6
 534.838867188 375.801757812 581.958007812 319.727539062 569.676757812 250.079101562 c 6
 569.676757812 250.079101562 556.497070312 172.5 526.020507812 -0.3427734375 c 5
 712.431640625 -0.3427734375 l 5
 742.5546875 173.327148438 l 5
 766.734375 310.459960938 l 5
 795.55078125 343.69140625 838.119140625 365.451171875 882.21875 365.451171875 c 6
 935.75390625 365.451171875 l 6
 1006.56445312 365.451171875 1053.68359375 309.376953125 1041.40234375 239.729492188 c 6
 999.071289062 -0.3427734375 l 5
 1185.48046875 -0.3427734375 l 5
 1214.27832031 162.977539062 l 5
 1250.34375 367.512695312 l 6
 1264.43164062 447.411132812 1172.28710938 505.567382812 1092.31640625 528.478515625 c 4
 1065.76464844 536.1015625 1037.44628906 539.983398438 1008.28515625 540 c 4
 922.6640625 539.927734375 833.58984375 496.295898438 767.2578125 438.358398438 c 5
 767.197265625 438.013671875 l 5
 740.47265625 482.717773438 676.125976562 512.044921875 618.765625 528.477539062 c 4
 592.21484375 536.099609375 563.897460938 539.982421875 534.734375 539.998046875 c 5
 534.735351562 540 l 5
EndSplineSet
EndChar

StartChar: n
Encoding: 110 110 39
Width: 746
Flags: HW
LayerCount: 2
Fore
SplineSet
537.61328125 540 m 4
 451.393554688 539.943359375 363.454101562 505.994140625 296.528320312 446.924804688 c 5
 312.940429688 540 l 5
 125.216796875 540 l 5
 29.939453125 -0.3427734375 l 5
 217.663085938 -0.3427734375 l 5
 260.84765625 244.569335938 l 6
 273.435546875 315.506835938 340.87890625 372.595703125 412.13671875 372.595703125 c 6
 466.046875 372.595703125 l 6
 537.35546875 372.595703125 584.680664062 315.42578125 572.16015625 244.416992188 c 6
 535.3203125 35.4912109375 l 5
 531.09765625 11.5439453125 l 5
 529.001953125 -0.3427734375 l 5
 716.72265625 -0.3427734375 l 5
 746.083007812 166.16796875 l 5
 782.852539062 374.696289062 l 6
 797.215820312 456.155273438 702.689453125 504.895507812 622.208007812 528.25390625 c 4
 595.485351562 536.025390625 566.979492188 539.983398438 537.61328125 540 c 4
EndSplineSet
EndChar

StartChar: o
Encoding: 111 111 40
Width: 804
Flags: HW
LayerCount: 2
Fore
SplineSet
469.904296875 540 m 4
 410.974609375 539.8984375 351.900390625 536.73828125 292.252929688 528.637695312 c 4
 201.791992188 516.353515625 130.34765625 458.994140625 103.552734375 374.775390625 c 4
 81.4033203125 305.150390625 68.8935546875 235.184570312 66.5390625 164.860351562 c 4
 63.72265625 80.6513671875 114.850585938 23.2822265625 200.979492188 10.998046875 c 4
 266.6015625 1.6376953125 333.790039062 -1.1416015625 402.182617188 -0.154296875 c 4
 470.227539062 -1.138671875 538.392578125 1.6376953125 607.317382812 10.998046875 c 4
 697.778320312 23.2822265625 769.137695312 80.6513671875 796.017578125 164.860351562 c 4
 818.461914062 235.184570312 830.625976562 305.150390625 833.03125 374.775390625 c 4
 835.9375 458.994140625 784.719726562 516.353515625 698.590820312 528.637695312 c 4
 641.799804688 536.73828125 583.84765625 539.928710938 524.94921875 540 c 4
 506.5546875 539.747070312 488.252929688 540 469.904296875 540 c 4
457.388671875 399.337890625 m 4
 467.543945312 399.340820312 477.6796875 399.216796875 487.854492188 399.337890625 c 4
 520.45703125 399.337890625 552.564453125 397.771484375 584.099609375 393.887695312 c 4
 631.92578125 388 661.01953125 360.5078125 660.51171875 320.137695312 c 4
 660.09375 286.762695312 654.274414062 253.223632812 642.768554688 219.513671875 c 4
 628.993164062 179.1484375 590.25 151.647460938 540.34765625 145.758789062 c 4
 502.32421875 141.271484375 464.638671875 139.939453125 426.96875 140.413085938 c 4
 389.129882812 139.936523438 351.912109375 141.275390625 315.47265625 145.758789062 c 4
 267.64453125 151.647460938 238.600585938 179.1484375 239.0625 219.513671875 c 4
 239.4453125 253.223632812 245.455078125 286.762695312 256.805664062 320.137695312 c 4
 270.53125 360.5078125 309.3203125 388 359.224609375 393.887695312 c 4
 392.12890625 397.771484375 424.780273438 399.297851562 457.388671875 399.337890625 c 4
EndSplineSet
EndChar

StartChar: p
Encoding: 112 112 41
Width: 810
Flags: HW
LayerCount: 2
Fore
SplineSet
-10.505859375 -229.720703125 m 1
 187.30859375 -229.720703125 l 1
 237.3046875 53.8212890625 l 1
 270.064453125 20.6572265625 316.764648438 0.6162109375 371.887695312 0.6162109375 c 2
 560.192382812 0.6162109375 l 2
 682.512695312 0.6162109375 798.350585938 99.0888671875 819.918945312 221.407226562 c 2
 836.634765625 316.208007812 l 2
 858.203125 438.525390625 777.091796875 537 654.771484375 537 c 2
 466.466796875 537 l 2
 411.34375 537 357.576171875 516.958984375 313.120117188 483.794921875 c 1
 322.501953125 537 l 1
 124.6875 537 l 1
 -10.505859375 -229.720703125 l 1
349.717773438 153.639648438 m 2
 297.190429688 153.639648438 262.361328125 195.923828125 271.623046875 248.450195312 c 2
 278.801757812 289.165039062 l 2
 288.063476562 341.69140625 337.8046875 383.9765625 390.33203125 383.9765625 c 2
 558.494140625 383.9765625 l 2
 611.01953125 383.9765625 645.850585938 341.69140625 636.588867188 289.165039062 c 2
 629.41015625 248.450195312 l 2
 620.1484375 195.923828125 570.405273438 153.639648438 517.879882812 153.639648438 c 2
 349.717773438 153.639648438 l 2
EndSplineSet
EndChar

StartChar: q
Encoding: 113 113 42
Width: 810
Flags: HW
LayerCount: 2
Fore
SplineSet
740.196289062 -230.720703125 m 5
 875.390625 536 l 5
 677.576171875 536 l 5
 668.194335938 482.794921875 l 5
 635.435546875 515.958984375 588.733398438 536 533.612304688 536 c 6
 345.3046875 536 l 6
 222.985351562 536 107.147460938 437.525390625 85.580078125 315.208007812 c 6
 68.86328125 220.407226562 l 6
 47.2958984375 98.0888671875 128.40625 -0.3837890625 250.725585938 -0.3837890625 c 6
 439.033203125 -0.3837890625 l 6
 494.154296875 -0.3837890625 547.923828125 19.6572265625 592.377929688 52.8212890625 c 5
 542.381835938 -230.720703125 l 5
 740.196289062 -230.720703125 l 5
515.166992188 152.639648438 m 6
 347.004882812 152.639648438 l 6
 294.4765625 152.639648438 259.647460938 194.923828125 268.909179688 247.450195312 c 6
 276.088867188 288.165039062 l 6
 285.350585938 340.69140625 335.091796875 382.9765625 387.620117188 382.9765625 c 6
 555.782226562 382.9765625 l 6
 608.30859375 382.9765625 643.137695312 340.69140625 633.875976562 288.165039062 c 6
 626.696289062 247.450195312 l 6
 617.434570312 194.923828125 567.693359375 152.639648438 515.166992188 152.639648438 c 6
EndSplineSet
EndChar

StartChar: r
Encoding: 114 114 43
Width: 684
Flags: HW
LayerCount: 2
Fore
SplineSet
125.216796875 540 m 5
 29.939453125 -0.3427734375 l 5
 223.1875 -0.3427734375 l 5
 267.13671875 248.904296875 l 5
 306.73046875 317.29296875 360.0234375 358.3828125 409.375 358.56640625 c 6
 480.278320312 358.56640625 l 6
 500.1640625 358.56640625 511.639648438 331.834960938 506.020507812 298.599609375 c 6
 501.150390625 269.825195312 l 5
 701.302734375 269.825195312 l 5
 704.872070312 288.735351562 l 6
 730.966796875 427.01171875 718.357421875 540 494.459960938 540 c 6
 475.483398438 540 l 6
 388.8046875 539.743164062 363.108398438 499.7265625 299.421875 432.01171875 c 5
 318.462890625 540 l 5
 125.216796875 540 l 5
EndSplineSet
EndChar

StartChar: s
Encoding: 115 115 44
Width: 768
Flags: HW
LayerCount: 2
Fore
SplineSet
291.771484375 536 m 6
 199.11328125 536 111.95703125 464.765625 96.3544921875 376.280273438 c 4
 80.751953125 287.793945312 142.787109375 216.559570312 235.4453125 216.559570312 c 6
 565.041015625 216.559570312 l 6
 584.796875 212.010742188 596.962890625 194.516601562 593.25 173.4609375 c 6
 592.586914062 169.69921875 l 6
 588.260742188 145.1640625 564.09375 125.41015625 538.3984375 125.41015625 c 6
 277.50390625 125.41015625 l 6
 251.8125 125.41015625 234.610351562 145.1640625 238.936523438 169.69921875 c 6
 239.599609375 173.4609375 l 6
 240.224609375 177.00390625 241.302734375 180.4296875 242.697265625 183.727539062 c 5
 64.23046875 183.727539062 l 6
 61.671875 175.985351562 59.6337890625 168.063476562 58.2109375 159.994140625 c 4
 42.609375 71.5087890625 104.646484375 0.2744140625 197.306640625 0.2744140625 c 6
 570.865234375 0.2744140625 l 6
 663.5234375 0.2744140625 750.677734375 71.5087890625 766.279296875 159.994140625 c 4
 781.881835938 248.478515625 719.848632812 319.712890625 627.190429688 319.712890625 c 6
 297.594726562 319.712890625 l 6
 277.838867188 324.264648438 265.672851562 341.755859375 269.385742188 362.813476562 c 6
 270.048828125 366.575195312 l 6
 274.375 391.110351562 298.541992188 410.86328125 324.235351562 410.86328125 c 6
 585.129882812 410.86328125 l 6
 610.825195312 410.86328125 628.025390625 391.110351562 623.69921875 366.575195312 c 6
 623.036132812 362.813476562 l 6
 622.411132812 359.26953125 621.331054688 355.844726562 619.938476562 352.546875 c 5
 798.401367188 352.546875 l 6
 800.961914062 360.2890625 803 368.2109375 804.422851562 376.280273438 c 4
 820.025390625 464.765625 757.98828125 536 665.330078125 536 c 6
 291.771484375 536 l 6
EndSplineSet
EndChar

StartChar: t
Encoding: 116 116 45
Width: 688
Flags: HW
LayerCount: 2
Fore
SplineSet
276.16015625 751 m 5
 256.072265625 637.076171875 l 5
 142.333984375 637.076171875 l 5
 120.767578125 514.766601562 l 5
 234.505859375 514.766601562 l 5
 170.810546875 151.969726562 l 6
 155.908203125 67.4482421875 213.813476562 -1.0693359375 300.147460938 -1.0712890625 c 6
 318.224609375 -1.0712890625 l 5
 336.303710938 -1.0712890625 l 5
 411.12890625 -1.0712890625 l 6
 547.44140625 -1.072265625 671.515625 75.8740234375 688.251953125 170.791015625 c 6
 701.536132812 246.1328125 l 5
 518.020507812 246.1328125 l 5
 510.176757812 201.645507812 l 6
 505.338867188 174.208984375 484.293945312 151.96875 463.171875 151.969726562 c 6
 401.052734375 151.969726562 l 6
 380.196289062 151.971679688 367.162109375 173.935546875 371.938476562 201.02734375 c 6
 379.891601562 246.1328125 l 5
 426.983398438 514.766601562 l 5
 733.197265625 514.766601562 l 5
 754.763671875 637.076171875 l 5
 448.549804688 637.076171875 l 5
 468.637695312 751 l 5
 276.16015625 751 l 5
EndSplineSet
EndChar

StartChar: u
Encoding: 117 117 46
Width: 746
Flags: HW
LayerCount: 2
Fore
SplineSet
304.326171875 -0.3427734375 m 4
 390.545898438 -0.2861328125 478.485351562 33.6630859375 545.411132812 92.732421875 c 5
 528.999023438 -0.3427734375 l 5
 716.72265625 -0.3427734375 l 5
 812 540 l 5
 624.276367188 540 l 5
 581.091796875 295.087890625 l 6
 568.50390625 224.150390625 501.05859375 167.061523438 429.801757812 167.061523438 c 6
 375.891601562 167.061523438 l 6
 304.583007812 167.061523438 257.258789062 224.231445312 269.779296875 295.240234375 c 6
 306.619140625 504.166015625 l 5
 310.841796875 528.11328125 l 5
 312.9375 540 l 5
 125.216796875 540 l 5
 95.8564453125 373.489257812 l 5
 59.0869140625 164.9609375 l 6
 44.7236328125 83.501953125 139.249023438 34.76171875 219.731445312 11.4033203125 c 4
 246.453125 3.6318359375 274.959960938 -0.326171875 304.326171875 -0.3427734375 c 4
EndSplineSet
EndChar

StartChar: v
Encoding: 118 118 47
Width: 881
Flags: HW
LayerCount: 2
Fore
SplineSet
125.216796875 540 m 5
 318.841796875 -0.3427734375 l 5
 340.71875 -0.3427734375 l 5
 536.44140625 -0.3427734375 l 5
 558.3203125 -0.3427734375 l 5
 946.716796875 540 l 5
 707.23828125 540 l 5
 467.078125 168.421875 l 5
 331.67578125 540 l 5
 125.216796875 540 l 5
EndSplineSet
EndChar

StartChar: w
Encoding: 119 119 48
Width: 1201
Flags: HW
LayerCount: 2
Fore
SplineSet
125.216796875 540 m 5
 248.7578125 -0.3427734375 l 5
 270.631835938 -0.3427734375 l 5
 462.216796875 -0.3427734375 l 5
 484.096679688 -0.3427734375 l 5
 666.760742188 344.77734375 l 5
 745.6640625 -0.3427734375 l 5
 767.5390625 -0.3427734375 l 5
 959.125 -0.3427734375 l 5
 980.999023438 -0.3427734375 l 5
 1266.9921875 540 l 5
 1096.90722656 540 l 5
 884.157226562 168.240234375 l 5
 792.309570312 540 l 5
 770.084960938 540 l 5
 622.124023438 540 l 5
 599.999023438 540 l 5
 387.250976562 168.240234375 l 5
 295.408203125 540 l 5
 125.216796875 540 l 5
EndSplineSet
EndChar

StartChar: x
Encoding: 120 120 49
Width: 810
Flags: HW
LayerCount: 2
Fore
SplineSet
125.216796875 540 m 5
 142.840820312 518.615234375 l 5
 189.780273438 461.670898438 l 5
 347.911132812 269.83203125 l 5
 29.939453125 -0.3427734375 l 5
 240.240234375 -0.3427734375 l 5
 434.532226562 164.758789062 l 5
 570.62109375 -0.3427734375 l 5
 780.904296875 -0.3427734375 l 5
 558.211914062 269.83203125 l 5
 876.181640625 540 l 5
 665.8984375 540 l 5
 471.584960938 374.8984375 l 5
 335.517578125 540 l 5
 125.216796875 540 l 5
EndSplineSet
EndChar

StartChar: y
Encoding: 121 121 50
Width: 881
Flags: HW
LayerCount: 2
Fore
SplineSet
125.392578125 541 m 1
 322.407226562 -0.2275390625 l 1
 344.287109375 -0.2275390625 l 1
 355.661132812 -0.2275390625 l 1
 354.708007812 -1.59375 l 1
 336.081054688 -28.4033203125 l 2
 311.131835938 -64.3037109375 267.787109375 -82.564453125 229.973632812 -82.564453125 c 2
 212.198242188 -82.564453125 l 1
 118.024414062 -218.087890625 l 1
 204.265625 -218.087890625 l 1
 306.643554688 -218.087890625 l 2
 363.185546875 -218.086914062 439.255859375 -174.56640625 476.560546875 -120.885742188 c 2
 946.890625 541 l 1
 707.4140625 541 l 1
 467.141601562 168.811523438 l 1
 331.849609375 541 l 1
 125.392578125 541 l 1
EndSplineSet
EndChar

StartChar: z
Encoding: 122 122 51
Width: 730
Flags: HW
LayerCount: 2
Fore
SplineSet
778.16796875 540 m 5
 125.216796875 540 l 5
 100.642578125 400.634765625 l 5
 547.099609375 400.634765625 l 5
 60.9482421875 175.515625 l 5
 52.95703125 130.197265625 l 5
 49.8564453125 112.609375 l 5
 29.939453125 -0.3427734375 l 5
 700.517578125 -0.3427734375 l 5
 725.088867188 139.008789062 l 5
 286.342773438 139.008789062 l 5
 764.088867188 360.220703125 l 5
 772.767578125 409.442382812 l 5
 780.748046875 454.698242188 l 5
 795.7890625 540 l 5
 778.16796875 540 l 5
EndSplineSet
EndChar

StartChar: one
Encoding: 49 49 52
Width: 402
Flags: HW
LayerCount: 2
Fore
SplineSet
215.466796875 770 m 5
 139.861328125 623.056640625 l 5
 295.424804688 623.0546875 l 5
 185.659179688 0.5400390625 l 5
 372.244140625 0.5400390625 l 5
 507.919921875 770 l 5
 334.080078125 770 l 5
 215.466796875 770 l 5
EndSplineSet
EndChar

StartChar: two
Encoding: 50 50 53
Width: 978
Flags: HW
LayerCount: 2
Fore
SplineSet
587.18359375 767 m 6
 513.954101562 766.927734375 440.65625 763.7109375 366.85546875 755.540039062 c 4
 254.932617188 743.1484375 168.502929688 685.291992188 138.682617188 600.344726562 c 4
 136.5234375 594.197265625 134.576171875 588.041992188 132.602539062 581.889648438 c 6
 118.265625 500.579101562 l 5
 343.189453125 500.579101562 l 5
 351.484375 549.40234375 l 6
 354.48828125 566.970703125 382.899414062 603.583984375 453.8984375 609.623046875 c 4
 494.619140625 613.086914062 535.161132812 615.120117188 575.6796875 615.120117188 c 4
 588.282226562 614.999023438 600.923828125 615.123046875 613.541992188 615.120117188 c 4
 654.057617188 615.079101562 694.029296875 613.541015625 733.38671875 609.623046875 c 4
 793.0703125 603.68359375 830.368164062 575.953125 831.399414062 535.233398438 c 4
 831.770507812 520.6875 832.569335938 516.109375 830.407226562 501.500976562 c 4
 827.419921875 486.8828125 823.237304688 472.293945312 817.733398438 457.73828125 c 4
 802.341796875 417.017578125 758.4375 407.280273438 696.659179688 401.340820312 c 4
 655.920898438 397.423828125 615.405273438 395.883789062 574.875976562 395.84375 c 4
 562.256835938 395.84375 549.659179688 395.96875 537.013671875 395.84375 c 4
 456.327148438 397.01171875 375.682617188 398.40625 294.989257812 399.53515625 c 5
 294.989257812 399.53515625 l 5
 117.345703125 399.53515625 96.0966796875 338.462890625 70.7412109375 194.681640625 c 6
 51.5244140625 85.70703125 l 5
 51.5263671875 85.70703125 l 5
 36.6064453125 1.0908203125 l 5
 948.935546875 1.0908203125 l 5
 979.1328125 172.348632812 l 5
 275.225585938 172.348632812 l 5
 285.938476562 236.151367188 l 6
 287.443359375 245.3046875 298.266601562 253.907226562 312.690429688 253.907226562 c 6
 312.692382812 253.907226562 l 5
 512.671875 253.963867188 l 5
 512.680664062 254.008789062 l 5
 530.174804688 254.0546875 547.64453125 253.963867188 565.1328125 253.963867188 c 4
 638.369140625 254.065429688 711.659179688 257.252929688 785.4609375 265.423828125 c 4
 897.383789062 277.814453125 980.638671875 317.677734375 1010.45898438 402.625976562 c 4
 1021.18457031 433.1796875 1029.50195312 463.803710938 1035.62597656 494.489257812 c 5
 1035.93652344 494.489257812 l 5
 1036.35058594 496.8359375 1036.63476562 499.178710938 1037.02246094 501.524414062 c 4
 1037.46875 503.84375 1037.99511719 506.161132812 1038.40429688 508.48046875 c 5
 1038.09765625 508.48046875 l 5
 1042.79296875 539.166992188 1045.27734375 569.790039062 1045.32617188 600.344726562 c 4
 1045.46289062 685.291992188 979.4375 743.1484375 871.883789062 755.5390625 c 4
 800.965820312 763.709960938 728.798828125 766.897460938 655.599609375 767 c 4
 632.793945312 767 609.947265625 766.7421875 587.186523438 767 c 6
 587.18359375 767 l 6
EndSplineSet
EndChar

StartChar: three
Encoding: 51 51 54
Width: 976
Flags: HW
LayerCount: 2
Fore
SplineSet
586.395507812 769 m 6
 513.365234375 768.935546875 440.33984375 766.14453125 366.92578125 759.05078125 c 4
 255.587890625 748.29296875 170.708007812 698.067382812 142.904296875 624.3203125 c 4
 140.889648438 618.983398438 139.087890625 613.639648438 137.259765625 608.297851562 c 6
 124.8125 537.708984375 l 5
 349.12890625 537.708984375 l 5
 354.293945312 568.776367188 l 6
 356.887695312 584.02734375 384.390625 615.813476562 455.05859375 621.056640625 c 4
 495.58984375 624.063476562 535.975585938 625.829101562 576.383789062 625.829101562 c 4
 588.955078125 625.723632812 601.560546875 625.831054688 614.145507812 625.829101562 c 4
 654.55078125 625.791015625 694.451171875 624.45703125 733.791015625 621.056640625 c 4
 793.44921875 615.900390625 831.276367188 591.82421875 833.232421875 556.473632812 c 4
 832.848632812 534.623046875 831.34765625 520.592773438 823.364257812 500.515625 c 4
 808.940429688 465.1640625 783.364257812 463.502929688 713.880859375 460.5546875 c 4
 689.85546875 459.536132812 579.209960938 459.6640625 573.030273438 459.227539062 c 6
 571.952148438 453.114257812 l 5
 547.986328125 317.201171875 l 5
 546.909179688 311.087890625 l 6
 552.935546875 310.651367188 643.275390625 312.657226562 687.291992188 309.760742188 c 4
 755.381835938 305.280273438 780.7265625 305.151367188 782.682617188 269.80078125 c 4
 784.970703125 246.787109375 782.272460938 240.525390625 772.817382812 213.841796875 c 4
 758.39453125 178.491210938 713.134765625 160.415039062 651.658203125 155.258789062 c 4
 611.119140625 151.858398438 570.748046875 150.522460938 530.330078125 150.486328125 c 4
 517.744140625 150.484375 505.176757812 150.591796875 492.568359375 150.486328125 c 4
 452.16015625 150.486328125 412.396484375 152.251953125 372.92578125 155.258789062 c 4
 304.106445312 160.502929688 287.813476562 192.288085938 290.59765625 207.5390625 c 6
 295.331054688 232.606445312 l 5
 71.0146484375 232.606445312 l 5
 58.568359375 162.017578125 l 6
 58.5126953125 156.67578125 58.4306640625 151.333007812 58.5625 145.995117188 c 4
 60.359375 72.2490234375 127.526367188 22.0224609375 235.071289062 11.2646484375 c 4
 305.983398438 4.1708984375 378.024414062 1.3779296875 451.032226562 1.3154296875 c 6
 451.034179688 1.3154296875 l 6
 473.818359375 1.5380859375 496.51953125 1.3154296875 519.262695312 1.3154296875 c 4
 592.298828125 1.40625 665.31640625 4.1708984375 738.731445312 11.2646484375 c 4
 850.0703125 22.021484375 934.946289062 72.25 962.751953125 145.997070312 c 4
 972.752929688 172.522460938 980.349609375 199.106445312 985.76171875 225.747070312 c 5
 986.067382812 225.747070312 l 5
 986.421875 227.76171875 986.659179688 229.772460938 986.9765625 231.786132812 c 4
 987.374023438 233.822265625 987.849609375 235.857421875 988.208984375 237.89453125 c 5
 987.899414062 237.89453125 l 5
 991.883789062 264.534179688 993.662109375 291.120117188 993.014648438 317.64453125 c 4
 992.336914062 345.440429688 981.963867188 367.6640625 963.56640625 385.157226562 c 5
 988.1328125 402.651367188 1006.34375 424.875976562 1016.82324219 452.670898438 c 4
 1026.82519531 479.1953125 1034.421875 505.78125 1039.83203125 532.420898438 c 5
 1040.14160156 532.420898438 l 5
 1040.50097656 534.458007812 1040.73144531 536.493164062 1041.06347656 538.529296875 c 4
 1041.45703125 540.54296875 1041.92871094 542.553710938 1042.28417969 544.568359375 c 5
 1041.97851562 544.568359375 l 5
 1045.96191406 571.208007812 1047.74023438 597.79296875 1047.09277344 624.318359375 c 4
 1045.29492188 698.065429688 978.131835938 748.293945312 870.5859375 759.05078125 c 4
 799.672851562 766.14453125 727.630859375 768.912109375 654.625976562 769 c 4
 631.8828125 769 609.103515625 768.77734375 586.397460938 769 c 6
 586.395507812 769 l 6
EndSplineSet
EndChar

StartChar: four
Encoding: 52 52 55
Width: 1001
Flags: HW
LayerCount: 2
Fore
SplineSet
808.56640625 771 m 5
 100.688476562 400.893554688 l 5
 71.904296875 237.65234375 l 5
 714.522460938 237.65234375 l 5
 672.575195312 -0.2412109375 l 5
 871.934570312 -0.2412109375 l 5
 913.881835938 237.65234375 l 5
 1013.78710938 237.65234375 l 5
 1042.57128906 400.893554688 l 5
 942.666015625 400.893554688 l 5
 1007.92578125 771 l 5
 808.56640625 771 l 5
773.515625 572.219726562 m 5
 743.306640625 400.893554688 l 5
 445.830078125 400.893554688 l 5
 773.515625 572.219726562 l 5
EndSplineSet
EndChar

StartChar: five
Encoding: 53 53 56
Width: 978
Flags: HW
LayerCount: 2
Fore
SplineSet
172.18359375 770 m 5
 157.215820312 685.11328125 l 5
 157.213867188 685.11328125 l 5
 137.939453125 575.7890625 l 5
 101.702148438 370.27734375 l 5
 289.828125 370.27734375 l 6
 370.919921875 371.41015625 452.055664062 372.80859375 533.155273438 373.981445312 c 4
 545.755859375 373.856445312 558.397460938 373.981445312 571.016601562 373.981445312 c 4
 611.53125 373.939453125 651.502929688 372.395507812 690.857421875 368.465820312 c 4
 750.537109375 362.5078125 791.000976562 352.739257812 792.009765625 311.888671875 c 4
 792.372070312 297.286132812 791.403320312 282.651367188 789.2265625 267.986328125 c 4
 786.229492188 253.331054688 782.041992188 238.705078125 776.534179688 224.112304688 c 4
 761.120117188 183.262695312 715.791015625 165.443359375 654.009765625 159.485351562 c 4
 613.26953125 155.5546875 572.752929688 154.01171875 532.224609375 153.969726562 c 4
 519.604492188 153.966796875 507.006835938 154.090820312 494.36328125 153.969726562 c 4
 453.845703125 153.969726562 414.020507812 156.009765625 374.5234375 159.485351562 c 4
 305.658203125 165.543945312 290.1796875 202.274414062 293.3828125 219.899414062 c 6
 302.337890625 268.91015625 l 5
 77.416015625 268.91015625 l 5
 63.033203125 187.33984375 l 6
 62.83203125 181.166992188 62.6064453125 174.993164062 62.5947265625 168.825195312 c 4
 62.4091796875 83.6044921875 128.403320312 25.5625 235.948242188 13.1318359375 c 4
 306.861328125 4.9345703125 379.024414062 1.708984375 452.227539062 1.63671875 c 6
 452.229492188 1.63671875 l 6
 475.08203125 1.8974609375 497.837890625 1.63671875 520.642578125 1.63671875 c 4
 593.877929688 1.73828125 667.16796875 4.9365234375 740.97265625 13.1337890625 c 4
 852.90234375 25.564453125 939.362304688 83.6044921875 969.23046875 168.825195312 c 4
 979.973632812 199.4765625 988.30859375 230.200195312 994.451171875 260.983398438 c 5
 994.7578125 260.983398438 l 5
 995.16796875 263.311523438 995.4609375 265.635742188 995.833007812 267.962890625 c 4
 996.286132812 270.315429688 996.817382812 272.666015625 997.232421875 275.01953125 c 5
 996.922851562 275.01953125 l 5
 1001.63671875 305.803710938 1004.13671875 336.52734375 1004.20214844 367.178710938 c 4
 1004.38671875 452.3984375 935.21484375 492.388671875 827.668945312 504.819335938 c 4
 756.754882812 513.015625 684.588867188 516.213867188 611.389648438 516.31640625 c 4
 593.90234375 516.31640625 576.400390625 516.225585938 558.921875 516.270507812 c 5
 558.9296875 516.31640625 l 5
 388.103515625 516.365234375 l 6
 366.823242188 516.282226562 346.325195312 512.150390625 333.403320312 505.338867188 c 5
 335.349609375 516.373046875 l 5
 335.34765625 516.373046875 l 5
 338.48828125 534.186523438 l 5
 350.333984375 598.321289062 l 5
 1054.23730469 598.321289062 l 5
 1084.50878906 770 l 5
 172.18359375 770 l 5
EndSplineSet
EndChar

StartChar: six
Encoding: 54 54 57
Width: 970
Flags: HW
LayerCount: 2
Fore
SplineSet
577.330078125 770 m 5
 577.330078125 769.998046875 l 5
 505.469726562 769.998046875 433.470703125 766.5234375 360.928710938 757.890625 c 4
 250.913085938 744.798828125 154.383789062 684.282226562 134.92578125 593.91796875 c 4
 129.873046875 570.458984375 82.1064453125 284.916992188 76.4384765625 260.633789062 c 5
 76.541015625 260.633789062 l 5
 75.9375 257.859375 75.2529296875 255.088867188 74.6904296875 252.313476562 c 6
 72.3955078125 239.294921875 l 6
 68.099609375 210.743164062 66.0869140625 182.250976562 66.5859375 153.823242188 c 4
 67.970703125 74.7841796875 137.16796875 20.9501953125 248.419921875 9.421875 c 4
 321.77734375 1.8193359375 396.333007812 -1.146484375 471.901367188 -1.2412109375 c 4
 475.348632812 -1.2412109375 478.797851562 -1.2412109375 482.244140625 -1.2412109375 c 4
 484.0546875 -1.2412109375 485.864257812 -1.2412109375 487.674804688 -1.2412109375 c 4
 491.122070312 -1.2412109375 494.5703125 -1.2412109375 498.017578125 -1.2412109375 c 4
 573.619140625 -1.146484375 649.21875 1.8193359375 725.258789062 9.421875 c 4
 840.577148438 20.9501953125 928.759765625 74.7841796875 958.018554688 153.823242188 c 4
 968.541992188 182.250976562 976.577148438 210.743164062 982.350585938 239.294921875 c 5
 982.6640625 239.294921875 l 5
 983.043945312 241.453125 983.303710938 243.610351562 983.646484375 245.768554688 c 4
 984.069335938 247.950195312 984.57421875 250.130859375 984.958984375 252.313476562 c 5
 984.641601562 252.313476562 l 5
 988.938476562 280.864257812 990.94921875 309.357421875 990.450195312 337.786132812 c 4
 989.064453125 416.82421875 916.912109375 453.915039062 805.66015625 465.443359375 c 4
 732.302734375 473.045898438 657.747070312 476.01171875 582.180664062 476.106445312 c 4
 577.889648438 476.106445312 573.59765625 476.102539062 569.306640625 476.106445312 c 4
 564.895507812 476.106445312 560.484375 476.106445312 556.072265625 476.106445312 c 6
 556.0703125 476.104492188 l 5
 556.072265625 476.102539062 l 5
 497.462890625 476.03125 438.846679688 474.155273438 380.033203125 469.80859375 c 4
 356.966796875 467.041015625 326.237304688 460.12109375 316.091796875 455.125976562 c 5
 316.64453125 458.260742188 l 6
 324.131835938 499.116210938 330.575195312 533.973632812 331.194335938 535.676757812 c 4
 346.840820312 578.69921875 385.5625 608 446.274414062 614.274414062 c 4
 486.310546875 618.4140625 526.096679688 620.0390625 565.875976562 620.08203125 c 4
 578.26171875 620.084960938 590.630859375 619.954101562 603.040039062 620.08203125 c 4
 642.811523438 620.08203125 682.01953125 618.4140625 720.595703125 614.274414062 c 4
 754.880859375 610.596679688 820.625 599.333984375 818.151367188 585.819335938 c 6
 809.545898438 538.793945312 l 5
 1035.47558594 538.793945312 l 5
 1042.65429688 579.508789062 l 5
 1042.86230469 579.508789062 l 5
 1044.96191406 592.595703125 l 5
 1046.95214844 603.8828125 l 6
 1046.94824219 604.951171875 1046.93847656 606.01953125 1046.93359375 607.086914062 c 4
 1059.45410156 711.874023438 993.466796875 741.595703125 856.598632812 757.877929688 c 4
 786.990234375 766.159179688 716.314453125 769.909179688 644.466796875 769.985351562 c 4
 622.03515625 769.713867188 599.706054688 769.985351562 577.322265625 769.985351562 c 5
 577.330078125 770 l 5
545.8515625 344.080078125 m 4
 586.747070312 343.986328125 627.141601562 342.556640625 666.958007812 338.991210938 c 4
 728.677734375 333.46484375 770.629882812 324.404296875 772.42578125 286.517578125 c 4
 773.069335938 272.973632812 772.337890625 259.3984375 770.362304688 245.796875 c 4
 767.5390625 232.206054688 763.48828125 218.640625 758.073242188 205.107421875 c 4
 742.916992188 167.220703125 694.814453125 141.418945312 631.1484375 135.892578125 c 4
 590.069335938 132.327148438 549.170898438 130.901367188 508.237304688 130.803710938 c 4
 467.344726562 130.90234375 426.952148438 132.327148438 387.137695312 135.892578125 c 4
 325.416992188 141.418945312 286.415039062 167.220703125 284.618164062 205.107421875 c 4
 283.975585938 218.640625 284.709960938 232.206054688 286.678710938 245.796875 c 4
 289.499023438 259.3984375 293.555664062 272.973632812 298.974609375 286.517578125 c 4
 314.1328125 324.404296875 359.282226562 333.46484375 422.951171875 338.991210938 c 4
 464.024414062 342.556640625 504.920898438 343.984375 545.8515625 344.080078125 c 4
EndSplineSet
EndChar

StartChar: seven
Encoding: 55 55 58
Width: 963
Flags: HW
LayerCount: 2
Fore
SplineSet
165.771484375 770 m 5
 135.083984375 595.959960938 l 5
 752.625976562 595.959960938 l 5
 106.913085938 -1.2412109375 l 5
 393.235351562 -1.2412109375 l 5
 1038.57421875 595.959960938 l 5
 1069.26171875 770 l 5
 165.771484375 770 l 5
EndSplineSet
EndChar

StartChar: eight
Encoding: 56 56 59
Width: 970
Flags: HW
LayerCount: 2
Fore
SplineSet
604.870117188 770 m 5
 604.840820312 769.833984375 l 5
 532.4296875 769.39453125 460.030273438 766.6328125 387.30859375 760 c 4
 268.759765625 749.186523438 178.834960938 698.700195312 149.989257812 624.57421875 c 4
 139.61328125 597.912109375 131.80078125 571.188476562 126.319335938 544.411132812 c 5
 125.994140625 544.411132812 l 5
 125.637695312 542.38671875 125.409179688 540.364257812 125.08984375 538.33984375 c 4
 124.690429688 536.29296875 124.202148438 534.249023438 123.841796875 532.201171875 c 5
 124.169921875 532.201171875 l 5
 120.208007812 505.424804688 118.596679688 478.702148438 119.5703125 452.040039062 c 4
 120.685546875 421.477539062 134.23828125 397.6953125 157.629882812 379.430664062 c 5
 127.243164062 358.029296875 104.833007812 331.568359375 92.9384765625 301.004882812 c 4
 82.5634765625 274.342773438 74.75 247.619140625 69.2685546875 220.841796875 c 5
 68.9443359375 220.841796875 l 5
 68.5869140625 218.817382812 68.3544921875 216.794921875 68.0400390625 214.770507812 c 4
 67.63671875 212.724609375 67.15234375 210.6796875 66.791015625 208.631835938 c 5
 67.119140625 208.631835938 l 5
 63.158203125 181.85546875 61.546875 155.1328125 62.521484375 128.470703125 c 4
 65.2255859375 54.3447265625 140.112304688 19.5595703125 254.84765625 8.7470703125 c 4
 325.23046875 2.1142578125 396.655273438 -0.6484375 468.911132812 -1.0869140625 c 5
 468.883789062 -1.2421875 l 5
 474.294921875 -1.2421875 479.708007812 -1.2421875 485.120117188 -1.2421875 c 4
 490.532226562 -1.2421875 495.942382812 -1.2421875 501.354492188 -1.2421875 c 5
 501.380859375 -1.0908203125 l 5
 573.790039062 -0.6513671875 646.189453125 2.1103515625 718.911132812 8.7431640625 c 4
 837.459960938 19.5556640625 924.61328125 54.3408203125 953.459960938 128.466796875 c 4
 963.8359375 155.12890625 971.6484375 181.8515625 977.129882812 208.627929688 c 5
 977.458984375 208.627929688 l 5
 977.819335938 210.67578125 978.043945312 212.720703125 978.374023438 214.766601562 c 4
 978.7734375 216.791015625 979.254882812 218.813476562 979.611328125 220.837890625 c 5
 979.286132812 220.837890625 l 5
 983.248046875 247.615234375 984.858398438 274.338867188 983.885742188 301.000976562 c 4
 982.770507812 331.564453125 969.692382812 358.025390625 946.852539062 379.426757812 c 5
 976.686523438 397.69140625 998.625976562 421.474609375 1010.51953125 452.038085938 c 4
 1020.89648438 478.700195312 1028.70898438 505.422851562 1034.18945312 532.19921875 c 5
 1034.51855469 532.19921875 l 5
 1034.87988281 534.247070312 1035.10449219 536.291015625 1035.43554688 538.337890625 c 4
 1035.83300781 540.362304688 1036.31445312 542.384765625 1036.671875 544.409179688 c 5
 1036.35058594 544.409179688 l 5
 1040.3125 571.186523438 1041.92382812 597.91015625 1040.95019531 624.572265625 c 4
 1038.24414062 698.698242188 966.125 749.184570312 851.388671875 759.997070312 c 4
 781.006835938 766.630859375 709.58203125 769.392578125 637.32421875 769.831054688 c 5
 637.353515625 769.998046875 l 5
 631.940429688 769.998046875 626.52734375 769.998046875 621.11328125 769.998046875 c 4
 615.700195312 769.998046875 610.286132812 769.998046875 604.873046875 769.998046875 c 6
 604.870117188 770 l 5
599.16015625 646.051757812 m 4
 636.720703125 645.72265625 673.899414062 644.38671875 710.612304688 641.396484375 c 4
 774.25 636.213867188 814.82421875 612.014648438 817.286132812 576.482421875 c 4
 818.166992188 563.790039062 817.633789062 551.068359375 815.826171875 538.321289062 c 4
 813.141601562 525.565429688 809.18359375 512.833007812 803.821289062 500.131835938 c 4
 788.827148438 464.598632812 742.489257812 456.1015625 677.0234375 450.918945312 c 4
 642.762695312 448.206054688 608.59765625 446.901367188 574.422851562 446.428710938 c 4
 570.96484375 446.427734375 567.509765625 446.428710938 564.052734375 446.428710938 c 4
 560.645507812 446.428710938 557.237304688 446.427734375 553.831054688 446.428710938 c 4
 519.775390625 446.899414062 486.0234375 448.204101562 452.674804688 450.920898438 c 4
 389.036132812 456.103515625 345.694335938 464.600585938 343.231445312 500.133789062 c 4
 342.349609375 512.834960938 342.879882812 525.567382812 344.694335938 538.323242188 c 4
 347.381835938 551.0703125 351.334960938 563.791992188 356.69140625 576.484375 c 4
 371.684570312 612.016601562 420.791992188 636.21484375 486.2578125 641.397460938 c 4
 523.961914062 644.3828125 561.547851562 645.719726562 599.16015625 646.051757812 c 4
552.059570312 322.32421875 m 6
 586.232421875 321.857421875 620.099609375 320.552734375 653.561523438 317.827148438 c 4
 717.200195312 312.64453125 757.7734375 288.4453125 760.236328125 252.913085938 c 4
 761.118164062 240.220703125 760.583984375 227.499023438 758.776367188 214.751953125 c 4
 756.091796875 201.995117188 752.1328125 189.263671875 746.771484375 176.5625 c 4
 731.778320312 141.030273438 685.439453125 132.532226562 619.973632812 127.350585938 c 4
 582.271484375 124.364257812 544.685546875 123.02734375 507.07421875 122.697265625 c 4
 469.513671875 123.025390625 432.336914062 124.361328125 395.623046875 127.3515625 c 4
 331.985351562 132.534179688 288.64453125 141.032226562 286.180664062 176.564453125 c 4
 285.299804688 189.265625 285.829101562 201.997070312 287.64453125 214.75390625 c 4
 290.331054688 227.500976562 294.282226562 240.221679688 299.639648438 252.915039062 c 4
 314.633789062 288.447265625 363.7421875 312.645507812 429.208007812 317.829101562 c 4
 463.567382812 320.548828125 497.829101562 321.853515625 532.102539062 322.322265625 c 4
 535.458007812 322.3203125 538.813476562 322.322265625 542.168945312 322.322265625 c 5
 542.168945312 322.322265625 l 5
 545.462890625 322.322265625 548.7578125 322.326171875 552.05078125 322.322265625 c 6
 552.059570312 322.32421875 l 6
EndSplineSet
EndChar

StartChar: nine
Encoding: 57 57 60
Width: 970
Flags: HW
LayerCount: 2
Fore
SplineSet
528.90234375 -1.2412109375 m 5
 528.90234375 -1.240234375 l 5
 600.762695312 -1.240234375 672.762695312 2.2353515625 745.303710938 10.8681640625 c 4
 855.319335938 23.9599609375 951.848632812 84.4755859375 971.306640625 174.840820312 c 4
 976.358398438 198.299804688 1024.12597656 483.841796875 1029.79394531 508.125 c 5
 1029.69140625 508.125 l 5
 1030.29394531 510.899414062 1030.98046875 513.669921875 1031.54199219 516.444335938 c 6
 1033.83691406 529.463867188 l 6
 1038.13378906 558.015625 1040.14453125 586.5078125 1039.64648438 614.935546875 c 4
 1038.26074219 693.973632812 969.063476562 747.80859375 857.8125 759.336914062 c 4
 784.454101562 766.939453125 709.8984375 769.905273438 634.331054688 770 c 4
 630.8828125 770 627.434570312 770 623.98828125 770 c 4
 622.177734375 770 620.368164062 770 618.557617188 770 c 4
 615.110351562 770 611.662109375 770 608.213867188 770 c 4
 532.61328125 769.905273438 457.012695312 766.939453125 380.973632812 759.336914062 c 4
 265.655273438 747.80859375 177.471679688 693.973632812 148.213867188 614.935546875 c 4
 137.689453125 586.5078125 129.655273438 558.015625 123.881835938 529.463867188 c 5
 123.568359375 529.463867188 l 5
 123.188476562 527.305664062 122.928710938 525.1484375 122.5859375 522.990234375 c 4
 122.1640625 520.80859375 121.658203125 518.627929688 121.2734375 516.444335938 c 5
 121.590820312 516.444335938 l 5
 117.294921875 487.89453125 115.283203125 459.401367188 115.782226562 430.97265625 c 4
 117.166992188 351.934570312 189.3203125 314.84375 300.572265625 303.315429688 c 4
 373.930664062 295.712890625 448.485351562 292.74609375 524.051757812 292.65234375 c 4
 528.342773438 292.65234375 532.635742188 292.65625 536.924804688 292.65234375 c 4
 541.3359375 292.65234375 545.747070312 292.65234375 550.16015625 292.65234375 c 6
 550.162109375 292.654296875 l 5
 550.161132812 292.65625 l 5
 608.76953125 292.727539062 667.385742188 294.603515625 726.19921875 298.950195312 c 4
 749.264648438 301.717773438 779.995117188 308.637695312 790.140625 313.6328125 c 5
 789.587890625 310.497070312 l 6
 782.099609375 269.642578125 775.658203125 234.78515625 775.038085938 233.08203125 c 4
 759.391601562 190.05859375 720.669921875 160.758789062 659.958007812 154.483398438 c 4
 619.921875 150.344726562 580.13671875 148.719726562 540.356445312 148.67578125 c 4
 527.969726562 148.672851562 515.600585938 148.8046875 503.192382812 148.67578125 c 4
 463.420898438 148.67578125 424.212890625 150.344726562 385.635742188 154.483398438 c 4
 351.352539062 158.162109375 285.607421875 169.424804688 288.081054688 182.939453125 c 6
 296.686523438 229.96484375 l 5
 70.755859375 229.96484375 l 5
 63.5771484375 189.25 l 5
 63.3701171875 189.25 l 5
 61.26953125 176.162109375 l 5
 59.279296875 164.875976562 l 6
 59.2841796875 163.807617188 59.2939453125 162.739257812 59.298828125 161.671875 c 4
 46.7783203125 56.884765625 112.766601562 27.1630859375 249.633789062 10.880859375 c 4
 319.241210938 2.599609375 389.91796875 -1.1513671875 461.765625 -1.2265625 c 4
 484.198242188 -0.955078125 506.52734375 -1.2265625 528.911132812 -1.2265625 c 5
 528.90234375 -1.2412109375 l 5
560.380859375 424.677734375 m 4
 519.484375 424.772460938 479.091796875 426.202148438 439.274414062 429.767578125 c 4
 377.5546875 435.293945312 335.602539062 444.354492188 333.806640625 482.241210938 c 4
 333.162109375 495.78515625 333.89453125 509.360351562 335.870117188 522.9609375 c 4
 338.693359375 536.552734375 342.744140625 550.1171875 348.159179688 563.651367188 c 4
 363.315429688 601.538085938 411.416992188 627.33984375 475.084960938 632.866210938 c 4
 516.162109375 636.431640625 557.061523438 637.857421875 597.995117188 637.955078125 c 4
 638.887695312 637.856445312 679.279296875 636.431640625 719.095703125 632.866210938 c 4
 780.815429688 627.33984375 819.817382812 601.538085938 821.61328125 563.651367188 c 4
 822.256835938 550.1171875 821.522460938 536.552734375 819.553710938 522.9609375 c 4
 816.733398438 509.360351562 812.67578125 495.78515625 807.256835938 482.241210938 c 4
 792.099609375 444.354492188 746.950195312 435.293945312 683.28125 429.767578125 c 4
 642.208007812 426.202148438 601.310546875 424.774414062 560.380859375 424.677734375 c 4
EndSplineSet
EndChar

StartChar: zero
Encoding: 48 48 61
Width: 975
Flags: HW
LayerCount: 2
Fore
SplineSet
398.717773438 747.786132812 m 5
 271.498046875 729.263671875 170.147460938 642.775390625 130.991210938 515.794921875 c 4
 97.94140625 408.612304688 83.1064453125 315.732421875 78.8779296875 220.243164062 c 4
 73.2529296875 93.2626953125 148.845703125 33.6748046875 269.534179688 15.15234375 c 4
 340.552734375 4.2529296875 503.389648438 -15.1123046875 711.262695312 15.1533203125 c 4
 838.482421875 33.6748046875 935.086914062 93.2626953125 974.243164062 220.244140625 c 4
 1007.29296875 327.424804688 1022.13085938 420.30859375 1026.35644531 515.794921875 c 4
 1031.98144531 642.775390625 961.131835938 729.263671875 840.442382812 747.786132812 c 4
 769.4609375 758.680664062 606.6015625 778.053710938 398.712890625 747.786132812 c 5
 398.717773438 747.786132812 l 5
705.331054688 590.560546875 m 4
 786.58203125 579.181640625 835.048828125 526.055664062 832.549804688 448.044921875 c 4
 830.594726562 386.828125 821.782226562 339.008789062 802.9921875 280.421875 c 4
 777.978515625 202.412109375 716.85546875 183.755859375 631.591796875 172.37890625 c 4
 545.60546875 160.900390625 487.021484375 160.840820312 404.655273438 172.37890625 c 4
 323.403320312 183.755859375 268.858398438 202.412109375 271.356445312 280.421875 c 4
 273.232421875 339.141601562 281.329101562 386.987304688 300.91015625 448.044921875 c 4
 325.922851562 526.055664062 393.126953125 579.181640625 478.391601562 590.560546875 c 4
 564.373046875 602.036132812 622.942382812 602.100585938 705.331054688 590.560546875 c 4
EndSplineSet
EndChar

StartChar: underscore
Encoding: 95 95 62
Width: 987
Flags: HW
LayerCount: 2
Fore
SplineSet
984.123046875 153 m 5
 56.978515625 153 l 5
 29.884765625 -0.65234375 l 5
 957.029296875 -0.65234375 l 5
 984.123046875 153 l 5
EndSplineSet
EndChar

StartChar: question
Encoding: 63 63 63
Width: 842
Flags: HW
LayerCount: 2
Fore
SplineSet
349.998046875 767 m 6
 247.647460938 767 147.109375 664.16015625 124.584960938 536.41796875 c 4
 122.530273438 524.767578125 121.21484375 513.331054688 120.573242188 502.155273438 c 6
 317.706054688 502.155273438 l 5
 317.650390625 506.916015625 317.984375 511.862304688 318.885742188 516.974609375 c 6
 319.84375 522.405273438 l 6
 326.08984375 557.827148438 353.969726562 586.34375 382.348632812 586.34375 c 6
 670.536132812 586.34375 l 6
 698.916992188 586.34375 716.732421875 557.827148438 710.486328125 522.405273438 c 6
 709.528320312 516.974609375 l 6
 704.168945312 486.577148438 682.87109375 461.322265625 659.002929688 454.75390625 c 6
 459.543945312 454.75390625 l 6
 408.641601562 454.75390625 360.099609375 413.489257812 351.124023438 362.584960938 c 6
 341.1171875 305.834960938 l 5
 331.110351562 249.084960938 l 5
 501.20703125 249.084960938 l 5
 504.182617188 265.956054688 l 6
 508.065429688 287.98046875 529.067382812 305.834960938 551.091796875 305.834960938 c 6
 681.309570312 305.834960938 l 6
 783.66015625 305.834960938 884.193359375 408.674804688 906.717773438 536.41796875 c 4
 929.2421875 664.16015625 864.9765625 767 762.625976562 767 c 6
 349.998046875 767 l 6
313.450195312 166.829101562 m 5
 283.96875 -0.3720703125 l 5
 454.065429688 -0.3720703125 l 5
 483.546875 166.829101562 l 5
 313.450195312 166.829101562 l 5
EndSplineSet
EndChar

StartChar: period
Encoding: 46 46 64
Width: 272
Flags: HW
LayerCount: 2
Fore
SplineSet
66.8525390625 209 m 5
 30.025390625 0.142578125 l 5
 242.498046875 0.142578125 l 5
 279.325195312 209 l 5
 66.8525390625 209 l 5
EndSplineSet
EndChar

StartChar: colon
Encoding: 58 58 65
Width: 272
Flags: HW
LayerCount: 2
Fore
SplineSet
130.506835938 570 m 5
 93.6796875 361.146484375 l 5
 306.15234375 361.146484375 l 5
 342.979492188 570 l 5
 130.506835938 570 l 5
66.796875 208.686523438 m 5
 29.970703125 -0.1669921875 l 5
 242.443359375 -0.1669921875 l 5
 279.26953125 208.686523438 l 5
 66.796875 208.686523438 l 5
EndSplineSet
EndChar

StartChar: semicolon
Encoding: 59 59 66
Width: 272
Flags: HW
LayerCount: 2
Fore
SplineSet
130.506835938 570 m 5
 93.6796875 361.145507812 l 5
 306.151367188 361.145507812 l 5
 342.978515625 570 l 5
 130.506835938 570 l 5
67.1904296875 210.916015625 m 5
 30.36328125 2.0625 l 5
 115.65625 2.0625 l 5
 115.565429688 1.5439453125 115.58203125 1.037109375 115.4921875 0.5234375 c 4
 107.736328125 -43.462890625 62.8955078125 -90.541015625 17.8203125 -90.541015625 c 4
 16.5927734375 -90.4345703125 15.3544921875 -90.3896484375 14.1298828125 -90.2841796875 c 5
 -7.466796875 -212.768554688 l 5
 71.759765625 -212.768554688 l 6
 145.299804688 -212.768554688 215.532226562 -153.063476562 228.499023438 -79.5234375 c 4
 244.528320312 11.3798828125 l 5
 279.7109375 210.91015625 l 5
 67.1904296875 210.916015625 l 5
EndSplineSet
EndChar

StartChar: comma
Encoding: 44 44 67
Width: 272
Flags: HW
LayerCount: 2
Fore
SplineSet
66.8525390625 209 m 5
 30.025390625 0.146484375 l 5
 115.318359375 0.146484375 l 5
 115.227539062 -0.37109375 115.248046875 -0.8779296875 115.158203125 -1.392578125 c 4
 107.40234375 -45.3779296875 62.5615234375 -92.45703125 17.486328125 -92.45703125 c 4
 16.259765625 -92.3466796875 15.0205078125 -92.3056640625 13.796875 -92.19921875 c 5
 -7.80078125 -214.684570312 l 5
 71.42578125 -214.684570312 l 6
 145.015625 -214.68359375 215.189453125 -155.028320312 228.166015625 -81.4384765625 c 6
 244.194335938 9.4638671875 l 5
 279.376953125 208.995117188 l 5
 66.8525390625 209 l 5
EndSplineSet
EndChar

StartChar: less
Encoding: 60 60 68
Width: 854
Flags: HW
LayerCount: 2
Fore
SplineSet
959.704101562 767 m 5
 913.625 751.087890625 l 5
 114.57421875 475.0546875 l 5
 108.392578125 439.994140625 l 5
 102.866210938 408.65234375 l 5
 99.6005859375 390.133789062 l 5
 94.0546875 358.678710938 l 5
 86.0625 317.946289062 l 5
 824.5 0.275390625 l 5
 852.641601562 159.874023438 l 5
 324.1015625 397.236328125 l 5
 931.755859375 608.553710938 l 5
 959.704101562 767 l 5
EndSplineSet
EndChar

StartChar: greater
Encoding: 62 62 69
Width: 854
Flags: HW
LayerCount: 2
Fore
SplineSet
29.8720703125 -0.724609375 m 5
 75.9541015625 15.1865234375 l 5
 875.001953125 291.220703125 l 5
 881.184570312 326.28125 l 5
 886.7109375 357.623046875 l 5
 889.9765625 376.141601562 l 5
 895.522460938 407.596679688 l 5
 903.513671875 448.329101562 l 5
 165.076171875 766 l 5
 136.934570312 606.401367188 l 5
 665.4765625 369.038085938 l 5
 57.8203125 157.721679688 l 5
 29.8720703125 -0.724609375 l 5
EndSplineSet
EndChar

StartChar: asterisk
Encoding: 42 42 70
Width: 503
Flags: HW
LayerCount: 2
Fore
SplineSet
294.965820312 620 m 5
 274.365234375 503.163085938 l 5
 156.775390625 536.234375 l 5
 103.346679688 415.969726562 l 5
 204.935546875 387.399414062 l 5
 115.143554688 268.254882812 l 5
 211.9921875 206 l 5
 306.2734375 331.099609375 l 5
 356.4453125 206 l 5
 475.248046875 268.254882812 l 5
 428.19140625 385.598632812 l 5
 546.881835938 415.969726562 l 5
 535.860351562 536.234375 l 5
 398.506835938 501.08984375 l 5
 419.473632812 620 l 5
 294.965820312 620 l 5
EndSplineSet
EndChar

StartChar: plus
Encoding: 43 43 71
Width: 630
Flags: HW
LayerCount: 2
Fore
SplineSet
365.088867188 689 m 5
 327.426757812 475.407226562 l 5
 113.827148438 475.407226562 l 5
 88.640625 332.565429688 l 5
 302.240234375 332.565429688 l 5
 264.577148438 118.966796875 l 5
 407.418945312 118.966796875 l 5
 445.08203125 332.565429688 l 5
 658.6796875 332.565429688 l 5
 683.866210938 475.407226562 l 5
 470.268554688 475.407226562 l 5
 507.930664062 689 l 5
 365.088867188 689 l 5
EndSplineSet
EndChar

StartChar: equal
Encoding: 61 61 72
Width: 630
Flags: HW
LayerCount: 2
Fore
SplineSet
129.272460938 563 m 5
 104.084960938 420.159179688 l 5
 674.120117188 420.159179688 l 5
 699.307617188 563 l 5
 129.272460938 563 l 5
96.0478515625 374.576171875 m 5
 70.861328125 231.735351562 l 5
 640.896484375 231.735351562 l 5
 666.083007812 374.576171875 l 5
 96.0478515625 374.576171875 l 5
EndSplineSet
EndChar

StartChar: asciitilde
Encoding: 126 126 73
Width: 888
Flags: HW
LayerCount: 2
Fore
SplineSet
344.813476562 530 m 5
 303.98046875 528.036132812 264.452148438 514.396484375 229.93359375 493.879882812 c 4
 181.056640625 464.856445312 140.5625 427.836914062 106.141601562 391.060546875 c 6
 97.28515625 381.59375 l 5
 174.838867188 305.098632812 l 5
 184.595703125 315.151367188 l 6
 215.110351562 346.572265625 244.67578125 374.28125 274.344726562 391.016601562 c 4
 293.563476562 401.8046875 312.588867188 408.61328125 326.97265625 408.61328125 c 6
 327.393554688 408.61328125 l 5
 327.79296875 408.61328125 l 6
 341.221679688 409.498046875 357.9765625 404.89453125 375.979492188 397.55078125 c 4
 395.432617188 389.245117188 415.564453125 376.6171875 438.00390625 363.159179688 c 4
 462.037109375 348.520507812 487.931640625 333.290039062 517.266601562 320.520507812 c 4
 549.059570312 306.673828125 584.374023438 297.091796875 622.674804688 294.203125 c 6
 622.784179688 294.203125 l 6
 667.96484375 291.182617188 714.14453125 297.8515625 758.497070312 311.739257812 c 4
 818.477539062 330.625 870.462890625 368.0703125 919.293945312 399.36328125 c 6
 930.249023438 406.37890625 l 5
 881.620117188 506.609375 l 5
 836.84375 478.391601562 783.958007812 439.854492188 743.248046875 427.4765625 c 4
 711.852539062 417.860351562 680.560546875 413.174804688 652.153320312 415.35546875 c 6
 652.046875 415.35546875 l 5
 651.9375 415.35546875 l 6
 627.716796875 416.918945312 603.380859375 423.689453125 579.732421875 433.732421875 c 4
 557.701171875 443.1015625 535.569335938 456.267578125 511.985351562 470.444335938 c 6
 511.875976562 470.444335938 l 6
 490.27734375 483.633789062 466.583007812 498.282226562 438.786132812 510.567382812 c 6
 438.676757812 510.567382812 l 6
 412.372070312 522.528320312 380.9609375 530.520507812 345.041992188 529.916015625 c 6
 344.827148438 529.916015625 l 5
 344.813476562 530 l 5
EndSplineSet
EndChar

StartChar: exclam
Encoding: 33 33 74
Width: 264
Flags: HW
LayerCount: 2
Fore
SplineSet
29.958984375 -0.234375 m 5
 234.708984375 -0.234375 l 5
 264.587890625 169.21875 l 5
 59.837890625 169.21875 l 5
 29.958984375 -0.234375 l 5
78.2939453125 209.130859375 m 5
 260.206054688 209.130859375 l 5
 370.698242188 771 l 5
 165.948242188 771 l 5
 78.2939453125 209.130859375 l 5
EndSplineSet
EndChar

StartChar: quotedbl
Encoding: 34 34 75
Width: 505
Flags: HW
LayerCount: 2
Fore
SplineSet
171.061523438 800 m 5
 118.15234375 435.178710938 l 5
 271.298828125 435.178710938 l 5
 347.045898438 800 l 5
 171.061523438 800 l 5
440.747070312 800 m 5
 387.833984375 435.178710938 l 5
 540.978515625 435.178710938 l 5
 616.725585938 800 l 5
 440.747070312 800 l 5
EndSplineSet
EndChar

StartChar: numbersign
Encoding: 35 35 76
Width: 923
Flags: HW
LayerCount: 2
Fore
SplineSet
565.268554688 756 m 5
 417.024414062 751.091796875 l 5
 366.473632812 599.364257812 l 5
 214.189453125 599.364257812 l 5
 159.21875 453.983398438 l 5
 318.04296875 453.983398438 l 5
 266.046875 297.915039062 l 5
 111.860351562 297.915039062 l 5
 56.896484375 152.53515625 l 5
 217.616210938 152.53515625 l 5
 165.126953125 -5.0107421875 l 5
 313.370117188 -0.1025390625 l 5
 364.22265625 152.53515625 l 5
 538.153320312 152.53515625 l 5
 485.662109375 -5.0107421875 l 5
 633.907226562 -0.1025390625 l 5
 684.758789062 152.53515625 l 5
 842.309570312 152.53515625 l 5
 897.279296875 297.915039062 l 5
 733.194335938 297.915039062 l 5
 785.189453125 453.983398438 l 5
 944.637695312 453.983398438 l 5
 999.602539062 599.364257812 l 5
 833.626953125 599.364257812 l 5
 885.810546875 756 l 5
 737.564453125 751.091796875 l 5
 687.014648438 599.364257812 l 5
 513.0859375 599.364257812 l 5
 565.268554688 756 l 5
464.654296875 453.983398438 m 5
 638.578125 453.983398438 l 5
 586.583984375 297.915039062 l 5
 412.659179688 297.915039062 l 5
 464.654296875 453.983398438 l 5
EndSplineSet
EndChar

StartChar: dollar
Encoding: 36 36 77
Width: 1036
Flags: HW
LayerCount: 2
Fore
SplineSet
612.288085938 800 m 5
 596.303710938 709.34765625 l 5
 385.661132812 709.34765625 l 6
 257.91796875 709.34765625 136.943359375 606.5078125 114.418945312 478.764648438 c 4
 91.89453125 351.021484375 176.6015625 248.181640625 304.344726562 248.181640625 c 6
 514.987304688 248.181640625 l 5
 491.78515625 116.591796875 l 5
 361.284179688 116.591796875 l 6
 325.86328125 116.591796875 302.373046875 145.108398438 308.618164062 180.530273438 c 6
 309.576171875 185.9609375 l 6
 310.477539062 191.07421875 312.008789062 196.021484375 313.974609375 200.782226562 c 5
 67.9345703125 200.782226562 l 6
 64.3125 189.604492188 61.416015625 178.168945312 59.361328125 166.517578125 c 4
 36.8369140625 38.775390625 121.548828125 -64.064453125 249.29296875 -64.064453125 c 6
 459.930664062 -64.064453125 l 5
 444.357421875 -152.380859375 l 5
 538.08203125 -152.380859375 l 5
 553.655273438 -64.064453125 l 5
 764.29296875 -64.064453125 l 6
 892.036132812 -64.064453125 1013.01074219 38.775390625 1035.53515625 166.517578125 c 4
 1058.06054688 294.26171875 973.3515625 397.1015625 845.608398438 397.1015625 c 6
 634.970703125 397.1015625 l 5
 658.173828125 528.690429688 l 5
 788.670898438 528.690429688 l 6
 824.091796875 528.690429688 847.580078125 500.174804688 841.333984375 464.752929688 c 6
 840.376953125 459.322265625 l 6
 839.474609375 454.208984375 837.9453125 449.26171875 835.979492188 444.500976562 c 5
 1082.02050781 444.500976562 l 6
 1085.64257812 455.677734375 1088.5390625 467.114257812 1090.59277344 478.764648438 c 4
 1113.1171875 606.5078125 1028.40429688 709.34765625 900.661132812 709.34765625 c 6
 690.028320312 709.34765625 l 5
 706.012695312 800 l 5
 612.288085938 800 l 5
428.990234375 528.690429688 m 6
 564.44921875 528.690429688 l 5
 541.24609375 397.1015625 l 5
 391.217773438 397.1015625 l 6
 364.032226562 403.668945312 347.4609375 428.923828125 352.821289062 459.322265625 c 6
 353.778320312 464.752929688 l 6
 360.024414062 500.174804688 393.569335938 528.690429688 428.990234375 528.690429688 c 6
608.711914062 248.181640625 m 5
 758.735351562 248.181640625 l 6
 785.921875 241.61328125 802.493164062 216.359375 797.1328125 185.9609375 c 6
 796.174804688 180.530273438 l 6
 789.9296875 145.108398438 756.385742188 116.591796875 720.963867188 116.591796875 c 6
 585.509765625 116.591796875 l 5
 608.711914062 248.181640625 l 5
EndSplineSet
EndChar

StartChar: percent
Encoding: 37 37 78
Width: 1422
Flags: HW
LayerCount: 2
Fore
SplineSet
261.836914062 771 m 6
 208.717773438 771 157.594726562 723.625976562 147.217773438 664.775390625 c 6
 107.506835938 439.561523438 l 6
 97.1298828125 380.7109375 131.545898438 333.336914062 184.665039062 333.336914062 c 6
 527.65625 333.336914062 l 6
 580.774414062 333.336914062 631.892578125 380.7109375 642.26953125 439.561523438 c 6
 681.98046875 664.775390625 l 6
 692.357421875 723.625976562 657.946289062 771 604.828125 771 c 6
 261.836914062 771 l 6
1082.11328125 766.696289062 m 5
 341.98046875 -0.025390625 l 5
 456.497070312 -0.025390625 l 5
 1196.60742188 766.696289062 l 5
 1082.11328125 766.696289062 l 5
325.259765625 666.576171875 m 6
 504.578125 666.576171875 l 6
 532.348632812 666.576171875 550.337890625 641.802734375 544.913085938 611.03515625 c 6
 524.15234375 493.295898438 l 6
 518.727539062 462.528320312 492.002929688 437.765625 464.232421875 437.765625 c 6
 284.9140625 437.765625 l 6
 257.143554688 437.765625 239.155273438 462.528320312 244.580078125 493.295898438 c 6
 265.340820312 611.03515625 l 6
 270.765625 641.802734375 297.489257812 666.576171875 325.259765625 666.576171875 c 6
1030.91015625 437.637695312 m 6
 977.791015625 437.637695312 926.66796875 390.256835938 916.291992188 331.407226562 c 6
 876.581054688 106.19921875 l 6
 866.204101562 47.3486328125 900.619140625 -0.025390625 953.73828125 -0.025390625 c 6
 1296.72949219 -0.025390625 l 6
 1349.84863281 -0.025390625 1400.96582031 47.3486328125 1411.34277344 106.19921875 c 6
 1451.05371094 331.407226562 l 6
 1461.4296875 390.256835938 1427.02050781 437.637695312 1373.90136719 437.637695312 c 6
 1030.91015625 437.637695312 l 6
1094.33300781 333.208984375 m 6
 1273.65136719 333.208984375 l 6
 1301.421875 333.208984375 1319.41113281 308.439453125 1313.98632812 277.671875 c 6
 1293.22558594 159.93359375 l 6
 1287.80078125 129.166015625 1261.07617188 104.3984375 1233.30566406 104.3984375 c 6
 1053.98730469 104.3984375 l 6
 1026.21777344 104.3984375 1008.22753906 129.166015625 1013.65234375 159.93359375 c 6
 1034.41308594 277.671875 l 6
 1039.83789062 308.439453125 1066.56347656 333.208984375 1094.33300781 333.208984375 c 6
EndSplineSet
EndChar

StartChar: ampersand
Encoding: 38 38 79
Width: 1053
Flags: HW
LayerCount: 2
Fore
SplineSet
434.536132812 766 m 6
 341.143554688 766.000976562 255.197265625 707.954101562 242.572265625 636.350585938 c 6
 230.751953125 569.313476562 l 5
 221.112304688 514.647460938 l 6
 214.76953125 478.672851562 236.646484375 446.387695312 276.135742188 433.262695312 c 5
 275.499023438 433.262695312 l 6
 182.108398438 433.264648438 93.0478515625 357.556640625 76.5791015625 264.1640625 c 6
 62.25 182.896484375 l 5
 61.474609375 178.502929688 l 6
 44.021484375 79.51953125 110.114257812 -0.720703125 209.09765625 -0.720703125 c 6
 226.560546875 -0.720703125 l 5
 767.711914062 -0.720703125 l 6
 872.92578125 -5.3408203125 977.118164062 76.8681640625 1000.43359375 182.896484375 c 6
 1016.65722656 274.909179688 l 5
 1024.43457031 319.013671875 l 5
 1080.02050781 319.013671875 l 5
 1100.15234375 433.190429688 l 5
 1044.56640625 433.190429688 l 5
 1048.43652344 455.13671875 l 5
 848.091796875 455.13671875 l 5
 844.221679688 433.190429688 l 5
 403.435546875 433.190429688 l 5
 427.438476562 569.313476562 l 5
 791.088867188 569.313476562 l 5
 779.44140625 503.26171875 l 5
 979.786132812 503.26171875 l 5
 991.43359375 569.313476562 l 5
 994.381835938 586.03515625 l 6
 1011.90722656 685.427734375 945.540039062 766 846.1484375 766 c 6
 462.119140625 766 l 5
 434.536132812 766 l 6
277.905273438 290.465820312 m 5
 819.056640625 290.465820312 l 5
 811.280273438 246.360351562 l 5
 795.055664062 154.34765625 l 5
 253.904296875 154.34765625 l 5
 270.12890625 246.360351562 l 5
 277.905273438 290.465820312 l 5
EndSplineSet
EndChar

StartChar: quotesingle
Encoding: 39 39 80
Width: 235
Flags: HW
LayerCount: 2
Fore
SplineSet
171.061523438 800 m 1
 118.1484375 435.178710938 l 1
 271.29296875 435.178710938 l 1
 347.040039062 800 l 1
 171.061523438 800 l 1
EndSplineSet
EndChar

StartChar: parenleft
Encoding: 40 40 81
Width: 350
Flags: HW
LayerCount: 2
Fore
SplineSet
267.615234375 767 m 6
 211.07421875 766.999023438 157.159179688 721.163085938 147.190429688 664.622070312 c 6
 125.037109375 538.982421875 l 5
 106.967773438 436.50390625 l 5
 88.32421875 330.775390625 l 5
 70.2548828125 228.295898438 l 5
 48.1015625 102.657226562 l 6
 38.130859375 46.1171875 75.8818359375 0.2802734375 132.420898438 0.279296875 c 6
 234.798828125 0.279296875 l 5
 321.040039062 0.279296875 l 5
 346.208007812 143.013671875 l 5
 328.431640625 143.013671875 l 6
 290.62109375 143.013671875 263.359375 162.249023438 270.026367188 200.060546875 c 6
 275.004882812 228.295898438 l 5
 293.07421875 330.775390625 l 5
 298.16015625 359.614257812 l 5
 306.6328125 407.665039062 l 5
 311.717773438 436.50390625 l 5
 329.787109375 538.982421875 l 5
 334.765625 567.21875 l 6
 341.434570312 605.03125 375.478515625 624.264648438 413.2890625 624.264648438 c 6
 431.065429688 624.264648438 l 5
 456.234375 767 l 5
 369.993164062 767 l 5
 267.615234375 767 l 6
EndSplineSet
EndChar

StartChar: parenright
Encoding: 41 41 82
Width: 350
Flags: HW
LayerCount: 2
Fore
SplineSet
353.862304688 767 m 6
 251.484375 767 l 5
 165.243164062 767 l 5
 140.07421875 624.264648438 l 5
 157.850585938 624.264648438 l 6
 195.661132812 624.264648438 222.923828125 605.03125 216.256835938 567.21875 c 6
 211.278320312 538.982421875 l 5
 193.208984375 436.50390625 l 5
 188.124023438 407.665039062 l 5
 179.651367188 359.614257812 l 5
 174.565429688 330.775390625 l 5
 156.49609375 228.297851562 l 5
 151.517578125 200.061523438 l 6
 144.848632812 162.248046875 110.803710938 143.013671875 72.9931640625 143.013671875 c 6
 55.216796875 143.013671875 l 5
 30.048828125 0.279296875 l 5
 116.290039062 0.279296875 l 5
 218.66796875 0.279296875 l 6
 275.208984375 0.2802734375 329.124023438 46.1171875 339.092773438 102.657226562 c 6
 361.24609375 228.297851562 l 5
 379.315429688 330.775390625 l 5
 397.958984375 436.50390625 l 5
 416.028320312 538.982421875 l 5
 438.181640625 664.622070312 l 6
 448.15234375 721.163085938 410.401367188 766.999023438 353.862304688 767 c 6
EndSplineSet
EndChar

StartChar: bracketleft
Encoding: 91 91 83
Width: 350
Flags: HW
LayerCount: 2
Fore
SplineSet
165.243164062 767 m 5
 149.045898438 675.14453125 l 5
 149.584960938 675.14453125 l 5
 148.620117188 671.684570312 147.817382812 668.176757812 147.190429688 664.622070312 c 6
 125.037109375 538.982421875 l 5
 106.967773438 436.504882812 l 5
 88.32421875 330.775390625 l 5
 70.2548828125 228.297851562 l 5
 48.1015625 102.657226562 l 5
 30.048828125 0.279296875 l 5
 132.420898438 0.279296875 l 5
 234.798828125 0.279296875 l 5
 321.041015625 0.279296875 l 5
 346.209960938 143.015625 l 5
 257.586914062 143.015625 l 5
 342.443359375 624.264648438 l 5
 431.06640625 624.264648438 l 5
 435.712890625 650.611328125 l 5
 456.235351562 767 l 5
 369.993164062 767 l 5
 281.922851562 767 l 5
 267.615234375 767 l 5
 165.243164062 767 l 5
EndSplineSet
EndChar

StartChar: bracketright
Encoding: 93 93 84
Width: 350
Flags: HW
LayerCount: 2
Fore
SplineSet
456.05859375 766 m 5
 353.685546875 766 l 5
 339.37890625 766 l 5
 251.307617188 766 l 5
 165.06640625 766 l 5
 144.543945312 649.610351562 l 5
 139.8984375 623.264648438 l 5
 228.521484375 623.264648438 l 5
 143.6640625 142.013671875 l 5
 55.041015625 142.013671875 l 5
 29.873046875 -0.720703125 l 5
 116.114257812 -0.720703125 l 5
 218.4921875 -0.720703125 l 5
 320.865234375 -0.720703125 l 5
 338.916992188 101.65625 l 5
 361.071289062 227.297851562 l 5
 379.140625 329.775390625 l 5
 397.783203125 435.502929688 l 5
 415.852539062 537.982421875 l 5
 438.006835938 663.622070312 l 6
 438.6328125 667.174804688 439.068359375 670.68359375 439.323242188 674.143554688 c 5
 439.862304688 674.143554688 l 5
 456.05859375 766 l 5
EndSplineSet
EndChar

StartChar: braceleft
Encoding: 123 123 85
Width: 428
Flags: HW
LayerCount: 2
Fore
SplineSet
366.270507812 770.999023438 m 6
 315.775390625 770.998046875 266.76171875 725.161132812 256.79296875 668.62109375 c 6
 234.639648438 542.98046875 l 5
 230.665039062 520.439453125 l 5
 229.140625 511.796875 l 6
 226.19140625 495.578125 218.958007812 480.352539062 208.993164062 467.57421875 c 4
 190.866210938 444.0546875 163.348632812 428.45703125 135.052734375 428.348632812 c 4
 124.649414062 428.436523438 115.038085938 430.67578125 106.6328125 434.604492188 c 5
 106.688476562 434.568359375 96.3671875 376.387695312 96.3671875 376.387695312 c 5
 86.1015625 318.169921875 l 5
 95.8935546875 322.098632812 106.293945312 324.337890625 116.728515625 324.424804688 c 4
 144.985351562 324.317382812 167.002929688 308.719726562 176.834960938 285.200195312 c 4
 182.293945312 272.421875 184.158203125 257.196289062 181.388671875 240.977539062 c 5
 181.35546875 241.075195312 179.088867188 227.936523438 179.088867188 227.936523438 c 5
 156.935546875 102.296875 l 6
 146.96484375 45.755859375 179.813476562 -0.080078125 230.307617188 -0.0810546875 c 6
 321.736328125 -0.0810546875 l 5
 398.754882812 -0.0810546875 l 5
 423.922851562 142.654296875 l 5
 408.048828125 142.654296875 l 6
 374.282226562 142.654296875 350.296875 161.888671875 356.963867188 199.700195312 c 6
 361.942382812 227.936523438 l 5
 365.916992188 250.479492188 l 5
 371.001953125 279.317382812 l 5
 374.213867188 297.534179688 l 5
 375.239257812 303.344726562 l 5
 376.05078125 307.94921875 l 6
 381.982421875 341.586914062 368.77734375 370.413085938 344.877929688 382.5546875 c 5
 373.059570312 394.6953125 396.4296875 423.522460938 402.360351562 457.159179688 c 4
 402.4140625 457.194335938 404.197265625 467.57421875 404.197265625 467.57421875 c 5
 408.43359375 491.6015625 l 5
 413.518554688 520.439453125 l 5
 417.493164062 542.981445312 l 5
 422.471679688 571.217773438 l 6
 429.139648438 609.028320312 459.909179688 628.264648438 493.67578125 628.264648438 c 6
 509.549804688 628.264648438 l 5
 534.717773438 771 l 5
 457.69921875 771 l 5
 366.270507812 770.999023438 l 6
EndSplineSet
EndChar

StartChar: braceright
Encoding: 125 125 86
Width: 428
Flags: HW
LayerCount: 2
Fore
SplineSet
334.395507812 770.999023438 m 6
 242.966796875 771 l 5
 165.948242188 771 l 5
 140.780273438 628.264648438 l 5
 156.654296875 628.264648438 l 6
 190.421875 628.264648438 214.405273438 609.028320312 207.739257812 571.217773438 c 6
 202.760742188 542.981445312 l 5
 198.786132812 520.439453125 l 5
 193.701171875 491.6015625 l 5
 189.46484375 467.57421875 l 5
 189.46484375 467.57421875 187.5859375 457.194335938 187.627929688 457.159179688 c 4
 181.697265625 423.522460938 194.901367188 394.696289062 218.801757812 382.5546875 c 5
 190.619140625 370.413085938 167.25 341.586914062 161.318359375 307.94921875 c 6
 160.506835938 303.344726562 l 5
 159.481445312 297.534179688 l 5
 156.26953125 279.317382812 l 5
 151.184570312 250.479492188 l 5
 147.209960938 227.936523438 l 5
 142.231445312 199.700195312 l 6
 135.5625 161.888671875 104.794921875 142.654296875 71.02734375 142.654296875 c 6
 55.1533203125 142.654296875 l 5
 29.9853515625 -0.0810546875 l 5
 107.00390625 -0.0810546875 l 5
 198.432617188 -0.0810546875 l 6
 248.927734375 -0.080078125 297.94140625 45.755859375 307.909179688 102.296875 c 6
 330.0625 227.936523438 l 5
 330.0625 227.936523438 332.4296875 241.075195312 332.362304688 240.977539062 c 5
 335.311523438 257.196289062 342.545898438 272.421875 352.510742188 285.200195312 c 4
 370.637695312 308.719726562 398.15625 324.317382812 426.451171875 324.424804688 c 4
 436.85546875 324.337890625 446.466796875 322.098632812 454.87109375 318.169921875 c 5
 465.13671875 376.387695312 l 5
 465.13671875 376.387695312 475.333007812 434.568359375 475.40234375 434.604492188 c 5
 465.611328125 430.67578125 455.2109375 428.436523438 444.775390625 428.348632812 c 4
 416.51953125 428.456054688 394.500976562 444.0546875 384.668945312 467.57421875 c 4
 379.209960938 480.352539062 377.344726562 495.578125 380.114257812 511.796875 c 6
 381.638671875 520.439453125 l 5
 385.61328125 542.98046875 l 5
 407.766601562 668.62109375 l 6
 417.73828125 725.161132812 384.889648438 770.998046875 334.395507812 770.999023438 c 6
EndSplineSet
EndChar

StartChar: asciicircum
Encoding: 94 94 87
Width: 598
Flags: HW
LayerCount: 2
Fore
SplineSet
358.186523438 800 m 5
 358.040039062 799.168945312 l 5
 114.00390625 476.412109375 l 5
 214.034179688 476.412109375 l 5
 410.375976562 736.090820312 l 5
 447.756835938 736.090820312 l 5
 552.520507812 476.412109375 l 5
 652.55078125 476.412109375 l 5
 522.002929688 799.995117188 l 5
 520.877929688 799.995117188 l 5
 458.6953125 799.995117188 l 5
 421.973632812 799.995117188 l 5
 358.666015625 799.995117188 l 5
 358.186523438 800 l 5
EndSplineSet
EndChar

StartChar: hyphen
Encoding: 45 45 88
Width: 630
Flags: HW
LayerCount: 2
Fore
SplineSet
87.6865234375 327.158203125 m 5
 657.723632812 327.158203125 l 5
 682.911132812 470 l 5
 112.874023438 470 l 5
 87.6865234375 327.158203125 l 5
EndSplineSet
EndChar

StartChar: at
Encoding: 64 64 89
Width: 1035
Flags: HW
LayerCount: 2
Fore
SplineSet
275.697265625 765 m 6
 214.541992188 765 156.124023438 715.279296875 145.32421875 654.037109375 c 5
 140.455078125 626.422851562 l 5
 50.47265625 116.103515625 l 6
 39.056640625 51.3603515625 82.2763671875 -1.203125 146.926757812 -1.203125 c 5
 146.92578125 -1.2021484375 168.166992188 -1.203125 168.166992188 -1.203125 c 5
 794.897460938 -1.203125 l 5
 819.33203125 137.374023438 l 5
 217.41015625 137.374023438 l 6
 204.150390625 140.375976562 195.903320312 153.127929688 198.186523438 168.661132812 c 5
 198.118164062 168.661132812 l 5
 273.19921875 594.46484375 l 5
 273.267578125 594.46484375 l 5
 276.924804688 612.251953125 293.103515625 626.392578125 309.830078125 626.422851562 c 4
 310.435546875 626.419921875 311.03515625 626.384765625 311.635742188 626.358398438 c 5
 311.646484375 626.422851562 l 5
 944.74609375 626.422851562 l 5
 944.735351562 626.358398438 l 5
 945.346679688 626.400390625 945.955078125 626.418945312 946.5625 626.422851562 c 4
 963.27734375 626.384765625 974.470703125 612.251953125 971.85546875 594.46484375 c 5
 971.923828125 594.46484375 l 5
 925.350585938 330.333984375 l 5
 925.286132812 330.333984375 l 5
 925.219726562 329.727539062 925.1328125 329.12109375 925.029296875 328.514648438 c 4
 922.0390625 311.768554688 905.508789062 298.064453125 887.65625 297.541992188 c 5
 887.64453125 297.474609375 l 5
 845.651367188 297.474609375 l 5
 869.540039062 432.95703125 l 6
 885.454101562 523.208007812 823.8515625 596.372070312 731.947265625 596.372070312 c 6
 501.931640625 596.372070312 l 6
 419.534179688 596.205078125 337.08203125 536.909179688 310.889648438 456.897460938 c 5
 470.827148438 456.897460938 l 5
 491.237304688 482.5546875 518.000976562 497.130859375 541.111328125 497.234375 c 6
 657.7890625 497.234375 l 6
 699.58984375 497.234375 725.991210938 450.671875 721.952148438 389.607421875 c 5
 708.413085938 409.856445312 683.600585938 423.211914062 650.482421875 427.194335938 c 4
 616.315429688 431.302734375 581.529296875 432.920898438 546.23046875 432.95703125 c 4
 535.2109375 432.828125 524.239257812 432.95703125 513.2421875 432.95703125 c 4
 477.928710938 432.904296875 442.578125 431.302734375 406.962890625 427.194335938 c 4
 352.948242188 420.963867188 311.05859375 391.87109375 296.368164062 349.155273438 c 4
 284.225585938 313.842773438 277.86328125 278.354492188 277.594726562 242.686523438 c 4
 277.275390625 199.9765625 308.8515625 170.87890625 360.668945312 164.647460938 c 4
 400.147460938 159.899414062 440.45703125 158.490234375 481.428710938 158.991210938 c 4
 522.225585938 158.4921875 563.032226562 159.899414062 604.188476562 164.647460938 c 4
 639.610351562 168.733398438 669.729492188 182.704101562 690.469726562 203.849609375 c 5
 682.559570312 158.991210938 l 5
 721.329101562 158.991210938 l 5
 721.3125 158.896484375 l 5
 926.743164062 158.896484375 l 6
 985.663085938 158.896484375 1041.94628906 206.799804688 1052.34960938 265.803710938 c 5
 1052.34863281 265.803710938 1057.87402344 297.135742188 1057.87402344 297.135742188 c 5
 1116.30566406 628.513671875 l 5
 1121.64941406 658.822265625 l 6
 1131.98242188 717.422851562 1092.86328125 764.999023438 1034.34765625 765 c 5
 275.697265625 765 l 6
486.584960938 344.913085938 m 6
 486.586914062 344.913085938 l 5
 708.571289062 344.913085938 l 5
 705.28125 321.098632812 695.565429688 270.279296875 695.565429688 270.279296875 c 6
 685.408203125 245.272460938 661.034179688 240.608398438 626.1640625 238.072265625 c 4
 599.595703125 236.141601562 573.112304688 235.568359375 546.55078125 235.770507812 c 4
 519.919921875 235.56640625 493.631835938 236.140625 467.74609375 238.072265625 c 4
 433.771484375 240.608398438 411.981445312 252.450195312 410.35546875 269.831054688 c 4
 408.999023438 284.345703125 411.612304688 298.786132812 417.995117188 313.15625 c 4
 425.716796875 330.5390625 451.715820312 342.376953125 486.584960938 344.913085938 c 6
EndSplineSet
EndChar

StartChar: slash
Encoding: 47 47 90
Width: 784
Flags: HW
LayerCount: 2
Fore
SplineSet
732.815429688 771 m 5
 724.435546875 761.799804688 l 5
 29.958984375 -0.234375 l 5
 187.872070312 -0.234375 l 5
 890.709960938 771 l 5
 732.815429688 771 l 5
EndSplineSet
EndChar

StartChar: grave
Encoding: 96 96 91
Width: 235
Flags: HW
LayerCount: 2
Fore
SplineSet
171.061523438 800 m 1
 118.1484375 435.178710938 l 1
 271.29296875 435.178710938 l 1
 347.040039062 800 l 1
 171.061523438 800 l 1
EndSplineSet
EndChar

StartChar: divide
Encoding: 256 247 92
Width: 784
Flags: HW
LayerCount: 2
Fore
SplineSet
596.827148438 -0.234375 m 5
 754.720703125 -0.234375 l 5
 323.861328125 771 l 5
 165.948242188 771 l 5
 591.690429688 8.9658203125 l 5
 596.827148438 -0.234375 l 5
EndSplineSet
EndChar

StartChar: aogonek
Encoding: 162 261 94
Width: 797
Flags: HW
LayerCount: 2
Fore
SplineSet
339.900390625 540 m 6
 233.626953125 539.795898438 127.852539062 466.5546875 94.8408203125 367.728515625 c 5
 301.125976562 367.728515625 l 5
 327.202148438 399.41796875 361.58203125 417.423828125 391.38671875 417.55078125 c 6
 541.876953125 417.55078125 l 6
 658.791015625 417.55078125 638.654296875 359.333007812 625.671875 284.6171875 c 5
 608.014648438 309.627929688 575.880859375 326.124023438 533.125976562 331.04296875 c 4
 489.018554688 336.118164062 444.139648438 338.115234375 398.611328125 338.16015625 c 4
 384.3984375 338.000976562 370.24609375 338.16015625 356.0625 338.16015625 c 4
 310.515625 338.095703125 264.935546875 336.118164062 219.040039062 331.04296875 c 4
 149.43359375 323.346679688 95.685546875 287.4140625 77.1494140625 234.654296875 c 4
 61.8271484375 191.037109375 53.96484375 147.206054688 53.9619140625 103.150390625 c 4
 53.9609375 50.3974609375 94.9677734375 14.4560546875 161.860351562 6.759765625 c 4
 212.826171875 0.8955078125 264.83203125 -0.8427734375 317.670898438 -0.224609375 c 4
 370.294921875 -0.8408203125 422.91015625 0.8955078125 475.946289062 6.759765625 c 4
 521.594726562 11.806640625 560.310546875 29.0634765625 586.857421875 55.181640625 c 5
 577.086914062 -0.224609375 l 5
 608.049804688 -0.224609375 l 5
 585.669921875 -27.1162109375 566.676757812 -67.619140625 584.30859375 -107.32421875 c 4
 605.774414062 -155.663085938 666.778320312 -170.967773438 744.225585938 -133.74609375 c 5
 724.986328125 -91.78125 l 5
 667.244140625 -119.532226562 656.952148438 -67.9345703125 655.764648438 -63.884765625 c 4
 651.86328125 -50.5791015625 650.352539062 -29.013671875 663.655273438 -0.224609375 c 5
 755.944335938 -0.224609375 l 5
 815.611328125 338.16015625 l 6
 835.266601562 449.633789062 755.109375 540 636.572265625 540 c 6
 339.900390625 540 l 6
324.786132812 209.685546875 m 5
 324.793945312 209.685546875 l 5
 542.577148438 209.685546875 l 5
 539.743164062 188.926757812 531.248046875 144.626953125 531.248046875 144.626953125 c 6
 522.171875 122.829101562 500.137695312 119.440429688 468.42578125 117.2890625 c 4
 444.262695312 115.650390625 425.442382812 115.1640625 395.983398438 115.3359375 c 4
 366.46484375 115.162109375 346.102539062 115.649414062 308.501953125 117.2890625 c 4
 259.150390625 119.440429688 226.426757812 129.489257812 222.250976562 144.23828125 c 4
 218.764648438 156.5546875 221.141601562 169.477539062 228.91015625 182.00390625 c 4
 238.30859375 197.155273438 274.670898438 207.474609375 324.788085938 209.685546875 c 5
 324.786132812 209.685546875 l 5
EndSplineSet
EndChar

StartChar: sacute
Encoding: 247 347 95
Width: 768
Flags: HW
LayerCount: 2
Fore
SplineSet
549.541992188 750 m 5
 401.161132812 599.255859375 l 5
 428.663085938 563.93359375 l 5
 593.182617188 684.017578125 l 5
 549.541992188 750 l 5
292.169921875 538.271484375 m 6
 199.512695312 538.271484375 112.290039062 466.657226562 96.60546875 377.703125 c 4
 80.919921875 288.748046875 142.887695312 217.13671875 235.544921875 217.13671875 c 6
 565.138671875 217.13671875 l 6
 584.890625 212.5625 597.040039062 194.975585938 593.306640625 173.806640625 c 6
 592.640625 170.02734375 l 6
 588.291015625 145.360351562 564.109375 125.501953125 538.4140625 125.501953125 c 6
 277.51953125 125.501953125 l 6
 251.827148438 125.501953125 234.642578125 145.360351562 238.9921875 170.02734375 c 6
 239.658203125 173.806640625 l 6
 240.286132812 177.368164062 241.370117188 180.815429688 242.767578125 184.130859375 c 5
 64.30078125 184.130859375 l 6
 61.734375 176.346679688 59.689453125 168.37890625 58.2587890625 160.265625 c 4
 42.57421875 71.3115234375 104.546875 -0.296875 197.205078125 -0.296875 c 6
 570.7578125 -0.296875 l 6
 663.415039062 -0.296875 750.63671875 71.3115234375 766.321289062 160.265625 c 4
 782.006835938 249.220703125 720.0390625 320.833984375 627.381835938 320.833984375 c 6
 297.788085938 320.833984375 l 6
 278.037109375 325.409179688 265.889648438 342.99609375 269.622070312 364.1640625 c 6
 270.2890625 367.94921875 l 6
 274.638671875 392.615234375 298.82421875 412.46875 324.518554688 412.46875 c 6
 585.411132812 412.46875 l 6
 611.103515625 412.46875 628.28515625 392.615234375 623.935546875 367.94921875 c 6
 623.268554688 364.1640625 l 6
 622.640625 360.602539062 621.559570312 357.163085938 620.162109375 353.84765625 c 5
 798.626953125 353.84765625 l 6
 801.1953125 361.630859375 803.237304688 369.590820312 804.66796875 377.703125 c 4
 820.352539062 466.657226562 758.38671875 538.271484375 665.728515625 538.271484375 c 6
 292.169921875 538.271484375 l 6
EndSplineSet
EndChar

StartChar: eogonek
Encoding: 253 281 96
Width: 796
Flags: HW
LayerCount: 2
Fore
SplineSet
466.46875 540 m 6
 408.126953125 539.8984375 349.635742188 536.739257812 290.568359375 528.638671875 c 4
 200.987304688 516.353515625 130.153320312 458.994140625 103.477539062 374.775390625 c 4
 81.4267578125 305.151367188 68.9189453125 235.182617188 66.4638671875 164.859375 c 4
 63.5283203125 80.6513671875 114.045898438 23.283203125 199.294921875 10.998046875 c 4
 256.454101562 2.7607421875 314.8828125 -0.1875 374.213867188 -0.150390625 c 5
 351.7265625 -27.03515625 332.557617188 -67.6494140625 350.276367188 -107.458984375 c 4
 371.7890625 -155.787109375 432.889648438 -171.088867188 510.439453125 -133.875 c 5
 491.159179688 -91.91796875 l 5
 433.340820312 -119.663085938 423.018554688 -68.0751953125 421.828125 -64.025390625 c 4
 417.907226562 -50.6875 416.380859375 -29.0478515625 429.813476562 -0.146484375 c 5
 486.783203125 0.0654296875 543.905273438 3.087890625 601.583007812 10.998046875 c 4
 691.163085938 23.283203125 760.502929688 72.6513671875 787.26171875 156.859375 c 4
 788.291015625 160.096679688 789.1875 163.329101562 790.172851562 166.564453125 c 5
 604.495117188 166.564453125 l 5
 586.116210938 151.184570312 563.258789062 149.063476562 535.517578125 145.7578125 c 4
 497.865234375 141.271484375 460.553710938 139.940429688 423.258789062 140.4140625 c 4
 385.796875 139.9375 348.94921875 141.274414062 312.8828125 145.7578125 c 4
 274.584960938 150.522460938 248.5 169.439453125 240.204101562 197.859375 c 5
 433.288085938 197.859375 l 5
 626.569335938 197.859375 l 5
 798.33203125 197.859375 l 5
 802.735351562 214.974609375 806.702148438 232.072265625 810.270507812 249.15234375 c 5
 810.30859375 249.15234375 l 5
 810.409179688 249.72265625 810.5078125 250.291992188 810.647460938 250.861328125 c 4
 811.221679688 253.625 811.806640625 256.389648438 812.358398438 259.15234375 c 5
 812.245117188 259.15234375 l 5
 812.665039062 261.317382812 813.107421875 263.483398438 813.50390625 265.646484375 c 6
 815.018554688 274.23828125 l 6
 817.170898438 286.890625 818.7734375 299.525390625 820.221679688 312.15234375 c 5
 820.3125 312.15234375 l 5
 820.478515625 313.694335938 820.677734375 315.805664062 820.852539062 317.451171875 c 4
 820.950195312 318.349609375 821.07421875 319.248046875 821.171875 320.146484375 c 6
 821.126953125 320.146484375 l 5
 822.98828125 337.599609375 825.138671875 358.912109375 825.708984375 374.775390625 c 4
 828.733398438 458.994140625 778.125976562 516.353515625 692.877929688 528.638671875 c 4
 636.666992188 536.739257812 579.297851562 539.928710938 520.987304688 540 c 4
 502.775390625 539.747070312 484.655273438 540 466.489257812 540 c 6
 466.46875 540 l 6
453.830078125 399.337890625 m 4
 463.884765625 399.340820312 473.919921875 399.216796875 483.9921875 399.337890625 c 4
 516.270507812 399.337890625 548.056640625 397.770507812 579.26953125 393.88671875 c 4
 623.444335938 388.392578125 650.18359375 357.112304688 653.098632812 320.154296875 c 5
 290.322265625 320.15234375 l 5
 255.11328125 320.15234375 l 5
 268.779296875 360.514648438 307.224609375 388 356.634765625 393.88671875 c 4
 389.216796875 397.770507812 421.546875 399.297851562 453.830078125 399.337890625 c 4
EndSplineSet
EndChar

StartChar: cacute
Encoding: 229 263 97
Width: 796
Flags: HW
LayerCount: 2
Fore
SplineSet
564.017578125 751 m 5
 415.635742188 600.25390625 l 5
 443.138671875 564.93359375 l 5
 607.658203125 685.017578125 l 5
 564.017578125 751 l 5
467.112304688 539.81640625 m 4
 408.654296875 539.71484375 350.046875 536.555664062 290.866210938 528.455078125 c 4
 201.111328125 516.169921875 130.158203125 458.810546875 103.4609375 374.591796875 c 4
 81.3896484375 304.967773438 68.880859375 235 66.447265625 164.67578125 c 4
 63.533203125 80.4677734375 114.169921875 23.0986328125 199.592773438 10.814453125 c 4
 264.677734375 1.4541015625 331.322265625 -1.3251953125 399.166992188 -0.337890625 c 4
 466.666015625 -1.3212890625 534.291992188 1.4541015625 602.678710938 10.814453125 c 4
 692.430664062 23.0986328125 763.30078125 80.4677734375 790.0859375 164.67578125 c 4
 795.748046875 182.483398438 800.744140625 200.267578125 805.110351562 218.029296875 c 5
 637.637695312 218.029296875 l 5
 623.534179688 178.38671875 585.404296875 151.401367188 536.434570312 145.576171875 c 4
 498.709960938 141.08984375 461.322265625 139.754882812 423.952148438 140.228515625 c 4
 386.416992188 139.751953125 349.501953125 141.092773438 313.360351562 145.576171875 c 4
 265.921875 151.46484375 237.151367188 178.96484375 237.666015625 219.330078125 c 4
 238.095703125 253.040039062 244.102539062 286.578125 255.408203125 319.953125 c 4
 269.08203125 360.323242188 307.59765625 387.817382812 357.112304688 393.705078125 c 4
 389.7578125 397.588867188 422.150390625 399.11328125 454.499023438 399.154296875 c 4
 464.572265625 399.157226562 474.625 399.033203125 484.719726562 399.154296875 c 4
 517.060546875 399.154296875 548.907226562 397.588867188 580.186523438 393.705078125 c 4
 611.484375 389.8203125 634.602539062 376.482421875 646.603515625 356.294921875 c 5
 826.126953125 356.294921875 l 5
 826.493164062 362.395507812 826.880859375 368.497070312 827.099609375 374.591796875 c 4
 830.100585938 458.810546875 779.372070312 516.169921875 693.952148438 528.455078125 c 4
 637.627929688 536.555664062 580.139648438 539.74609375 521.713867188 539.81640625 c 4
 503.46875 539.563476562 485.311523438 539.81640625 467.112304688 539.81640625 c 4
EndSplineSet
EndChar

StartChar: nacute
Encoding: 241 324 98
Width: 746
Flags: HW
LayerCount: 2
Fore
SplineSet
540.486328125 759 m 5
 392.10546875 608.25390625 l 5
 419.607421875 572.93359375 l 5
 584.126953125 693.017578125 l 5
 540.486328125 759 l 5
125.338867188 540.69140625 m 5
 30.0615234375 0.34765625 l 5
 217.786132812 0.34765625 l 5
 260.970703125 245.259765625 l 6
 273.557617188 316.197265625 341.000976562 373.287109375 412.2578125 373.287109375 c 6
 466.169921875 373.287109375 l 6
 537.477539062 373.287109375 584.802734375 316.118164062 572.282226562 245.109375 c 6
 535.442382812 36.18359375 l 5
 531.219726562 12.236328125 l 5
 529.124023438 0.34765625 l 5
 716.844726562 0.34765625 l 5
 746.205078125 166.859375 l 5
 782.973632812 375.38671875 l 6
 797.337890625 456.845703125 702.811523438 505.586914062 622.330078125 528.9453125 c 4
 595.607421875 536.716796875 567.1015625 540.674804688 537.735351562 540.69140625 c 4
 451.514648438 540.634765625 363.576171875 506.68359375 296.651367188 447.615234375 c 5
 313.063476562 540.69140625 l 5
 125.338867188 540.69140625 l 5
EndSplineSet
EndChar

StartChar: oacute
Encoding: 243 243 99
Width: 804
Flags: HW
LayerCount: 2
Fore
SplineSet
567.716796875 750 m 5
 419.3359375 599.255859375 l 5
 446.837890625 563.93359375 l 5
 611.357421875 684.017578125 l 5
 567.716796875 750 l 5
469.6953125 538.81640625 m 4
 410.767578125 538.71484375 351.690429688 535.555664062 292.044921875 527.455078125 c 4
 201.583007812 515.169921875 130.139648438 457.810546875 103.34375 373.591796875 c 4
 81.1943359375 303.967773438 68.6845703125 234 66.330078125 163.67578125 c 4
 63.5146484375 79.4677734375 114.641601562 22.099609375 200.770507812 9.814453125 c 4
 266.392578125 0.4541015625 333.581054688 -2.3251953125 401.973632812 -1.337890625 c 4
 470.018554688 -2.3212890625 538.184570312 0.4541015625 607.109375 9.814453125 c 4
 697.5703125 22.099609375 768.928710938 79.4677734375 795.807617188 163.67578125 c 4
 818.251953125 234 830.416015625 303.967773438 832.821289062 373.591796875 c 4
 835.728515625 457.810546875 784.51171875 515.169921875 698.383789062 527.455078125 c 4
 641.591796875 535.555664062 583.638671875 538.74609375 524.741210938 538.81640625 c 4
 506.346679688 538.563476562 488.044921875 538.81640625 469.6953125 538.81640625 c 4
457.180664062 398.154296875 m 4
 467.3359375 398.157226562 477.470703125 398.033203125 487.645507812 398.154296875 c 4
 520.248046875 398.154296875 552.357421875 396.588867188 583.891601562 392.705078125 c 4
 631.717773438 386.817382812 660.810546875 359.32421875 660.302734375 318.953125 c 4
 659.884765625 285.578125 654.065429688 252.040039062 642.559570312 218.330078125 c 4
 628.784179688 177.96484375 590.04296875 150.46484375 540.140625 144.576171875 c 4
 502.115234375 140.08984375 464.430664062 138.756835938 426.759765625 139.23046875 c 4
 388.919921875 138.75390625 351.703125 140.092773438 315.265625 144.576171875 c 4
 267.436523438 150.46484375 238.391601562 177.96484375 238.853515625 218.330078125 c 4
 239.236328125 252.040039062 245.24609375 285.578125 256.596679688 318.953125 c 4
 270.322265625 359.32421875 309.111328125 386.817382812 359.016601562 392.705078125 c 4
 391.920898438 396.588867188 424.572265625 398.114257812 457.180664062 398.154296875 c 4
EndSplineSet
EndChar

StartChar: zacute
Encoding: 174 378 100
Width: 730
Flags: HW
LayerCount: 2
Fore
SplineSet
531.15234375 752 m 5
 382.771484375 601.255859375 l 5
 410.2734375 565.93359375 l 5
 574.793945312 686.017578125 l 5
 531.15234375 752 l 5
125.265625 540.27734375 m 5
 100.69140625 400.91015625 l 5
 547.150390625 400.91015625 l 5
 60.9970703125 175.791015625 l 5
 53.0068359375 130.4765625 l 5
 49.904296875 112.884765625 l 5
 29.98828125 -0.06640625 l 5
 700.5703125 -0.06640625 l 5
 725.141601562 139.28515625 l 5
 286.399414062 139.28515625 l 5
 764.147460938 360.49609375 l 5
 772.827148438 409.720703125 l 5
 780.806640625 454.9765625 l 5
 795.84765625 540.27734375 l 5
 778.220703125 540.27734375 l 5
 125.265625 540.27734375 l 5
EndSplineSet
EndChar

StartChar: zdotaccent
Encoding: 191 380 101
Width: 730
Flags: HW
LayerCount: 2
Fore
SplineSet
442.236328125 680 m 5
 423.400390625 573.178710938 l 5
 533.194335938 573.178710938 l 5
 552.030273438 680 l 5
 442.236328125 680 l 5
778.23828125 540.3828125 m 5
 778.23828125 540.3828125 l 5
 125.284179688 540.3828125 l 5
 100.709960938 401.016601562 l 5
 547.166992188 401.016601562 l 5
 61.015625 175.897460938 l 5
 53.025390625 130.58203125 l 5
 49.9228515625 112.990234375 l 5
 30.0068359375 0.0400390625 l 5
 700.583984375 0.0400390625 l 5
 725.155273438 139.390625 l 5
 286.4140625 139.390625 l 5
 764.161132812 360.6015625 l 5
 772.840820312 409.826171875 l 5
 780.8203125 455.083007812 l 5
 795.861328125 540.3828125 l 5
 778.23828125 540.3828125 l 5
EndSplineSet
EndChar

StartChar: lslash
Encoding: 179 322 102
Width: 416
Flags: HW
LayerCount: 2
Fore
SplineSet
245.1953125 752 m 5
 178.334960938 372.814453125 l 5
 88.5673828125 332.150390625 l 5
 69.376953125 223.31640625 l 5
 159.14453125 263.981445312 l 5
 112.584960938 -0.0712890625 l 5
 304.088867188 -0.0712890625 l 5
 367.274414062 358.271484375 l 5
 457.040039062 398.935546875 l 5
 476.23046875 507.76953125 l 5
 386.46484375 467.104492188 l 5
 436.69921875 752 l 5
 245.1953125 752 l 5
EndSplineSet
EndChar

StartChar: Aogonek
Encoding: 161 260 103
Width: 1217
Flags: HW
LayerCount: 2
Fore
SplineSet
862.817382812 768 m 5
 622.194335938 768 l 5
 619.274414062 764.224609375 l 5
 278.80859375 323.23828125 l 5
 30.2255859375 1.279296875 l 5
 275.352539062 1.279296875 l 5
 381.790039062 139.140625 l 5
 881.448242188 139.140625 l 5
 939.272460938 1.279296875 l 5
 971.924804688 1.279296875 l 5
 1027.96582031 1.28125 l 5
 1005.58691406 -25.611328125 986.59375 -66.1162109375 1004.22558594 -105.8203125 c 4
 1025.69140625 -154.16015625 1086.69628906 -169.46484375 1164.14355469 -132.2421875 c 5
 1144.90625 -90.275390625 l 5
 1087.16308594 -118.02734375 1076.87011719 -66.4267578125 1075.68261719 -62.376953125 c 4
 1071.78222656 -49.0712890625 1070.27148438 -27.505859375 1083.57421875 1.283203125 c 5
 1099.61523438 1.283203125 l 5
 1184.39648438 1.283203125 l 5
 864.40234375 764.228515625 l 5
 862.817382812 768 l 5
705.5625 558.48828125 m 5
 804.23046875 323.232421875 l 5
 523.927734375 323.232421875 l 5
 705.5625 558.48828125 l 5
EndSplineSet
EndChar

StartChar: Eogonek
Encoding: 221 280 104
Width: 905
Flags: HW
LayerCount: 2
Fore
SplineSet
243.721679688 768 m 5
 165.418945312 767.998046875 l 5
 30.2255859375 1.27734375 l 5
 272.467773438 1.27734375 l 5
 272.541015625 1.697265625 l 5
 662.74609375 1.697265625 l 5
 640.366210938 -25.1943359375 621.375 -65.697265625 639.006835938 -105.40234375 c 4
 660.47265625 -153.741210938 721.4765625 -169.045898438 798.923828125 -131.82421875 c 5
 779.684570312 -89.857421875 l 5
 721.943359375 -117.608398438 711.650390625 -66.0107421875 710.462890625 -61.9609375 c 4
 706.5625 -48.6552734375 705.049804688 -27.0908203125 718.3515625 1.697265625 c 5
 875.3203125 1.697265625 l 5
 909.764648438 197.037109375 l 5
 306.985351562 197.037109375 l 5
 325.900390625 304.30859375 l 5
 851.1953125 304.30859375 l 5
 880.604492188 471.099609375 l 5
 355.309570312 471.099609375 l 5
 373.217773438 572.662109375 l 5
 975.997070312 572.662109375 l 5
 1010.44042969 768 l 5
 407.661132812 768 l 5
 243.721679688 768 l 5
EndSplineSet
EndChar

StartChar: Cacute
Encoding: 197 262 105
Width: 1095
Flags: HW
LayerCount: 2
Fore
SplineSet
755.165039062 988 m 5
 605.9609375 832.59375 l 5
 633.271484375 796.177734375 l 5
 798.4453125 919.9765625 l 5
 755.165039062 988 l 5
646.846679688 772.830078125 m 4
 564.6875 772.686523438 482.302734375 768.17578125 399.091796875 756.61328125 c 4
 272.895507812 739.079101562 172.948242188 657.209960938 135.100585938 537.00390625 c 4
 103.815429688 437.62890625 85.9658203125 337.764648438 82.2705078125 237.390625 c 4
 77.8525390625 117.200195312 148.803710938 35.3154296875 268.81640625 17.78125 c 4
 360.256835938 4.4208984375 453.916992188 0.455078125 549.278320312 1.86328125 c 4
 644.146484375 0.458984375 739.200195312 4.4208984375 835.357421875 17.78125 c 4
 961.552734375 35.3154296875 1061.38183594 117.200195312 1099.34472656 237.390625 c 4
 1107.37207031 262.806640625 1114.46777344 288.189453125 1120.66894531 313.541015625 c 5
 885.291015625 313.541015625 l 5
 865.307617188 256.958984375 811.616210938 218.440429688 742.768554688 210.126953125 c 4
 689.728515625 203.723632812 637.172851562 201.8203125 584.655273438 202.49609375 c 4
 531.899414062 201.815429688 480.017578125 203.727539062 429.233398438 210.126953125 c 4
 362.590820312 218.532226562 322.252929688 257.783203125 323.129882812 315.396484375 c 4
 323.861328125 363.51171875 332.434570312 411.380859375 348.454101562 459.017578125 c 4
 367.830078125 516.638671875 422.07421875 555.879882812 491.680664062 564.283203125 c 4
 537.583007812 569.827148438 583.112304688 572.004882812 628.580078125 572.0625 c 4
 642.737304688 572.0625 656.870117188 571.888671875 671.056640625 572.0625 c 4
 716.514648438 572.0625 761.267578125 569.827148438 805.215820312 564.283203125 c 4
 849.186523438 558.73828125 881.631835938 539.703125 898.41796875 510.888671875 c 5
 1150.73925781 510.888671875 l 5
 1151.27832031 519.595703125 1151.84570312 528.3046875 1152.17480469 537.00390625 c 4
 1156.72265625 657.209960938 1085.64453125 739.079101562 965.6328125 756.61328125 c 4
 886.497070312 768.17578125 805.708984375 772.728515625 723.59375 772.830078125 c 4
 697.947265625 772.467773438 672.432617188 772.830078125 646.846679688 772.830078125 c 4
EndSplineSet
EndChar

StartChar: Nacute
Encoding: 209 323 106
Width: 1112
Flags: HW
LayerCount: 2
Fore
SplineSet
763.55078125 987 m 5
 614.34765625 831.59375 l 5
 641.65625 795.177734375 l 5
 806.831054688 918.9765625 l 5
 763.55078125 987 l 5
165.345703125 767.583984375 m 5
 30.15234375 0.86328125 l 5
 275.275390625 0.86328125 l 5
 373.715820312 559.1484375 l 5
 756.7890625 0.86328125 l 5
 837.53515625 0.86328125 l 5
 872.93359375 0.86328125 l 5
 1082.65625 0.86328125 l 5
 1217.84960938 767.583984375 l 5
 972.728515625 767.583984375 l 5
 875.897460938 218.42578125 l 5
 499.091796875 767.583984375 l 5
 410.46875 767.583984375 l 5
 165.345703125 767.583984375 l 5
EndSplineSet
EndChar

StartChar: Oacute
Encoding: 211 211 107
Width: 1097
Flags: HW
LayerCount: 2
Fore
SplineSet
756.776367188 990 m 5
 607.57421875 834.59375 l 5
 634.883789062 798.177734375 l 5
 800.05859375 921.9765625 l 5
 756.776367188 990 l 5
647.200195312 774.828125 m 4
 565.040039062 774.684570312 482.655273438 770.173828125 399.443359375 758.611328125 c 4
 273.24609375 741.077148438 173.30078125 659.208007812 135.454101562 539.001953125 c 4
 104.16796875 439.626953125 86.318359375 339.762695312 82.6240234375 239.388671875 c 4
 78.2041015625 119.197265625 149.154296875 37.3154296875 269.16796875 19.78125 c 4
 360.609375 6.4208984375 454.268554688 2.455078125 549.630859375 3.86328125 c 4
 644.494140625 2.458984375 739.553710938 6.4208984375 835.708984375 19.78125 c 4
 961.905273438 37.3154296875 1061.73144531 119.197265625 1099.69824219 239.388671875 c 4
 1131.40332031 339.762695312 1148.76953125 439.626953125 1152.52832031 539.001953125 c 4
 1157.07226562 659.208007812 1085.99707031 741.077148438 965.984375 758.611328125 c 4
 886.849609375 770.173828125 806.063476562 774.7265625 723.947265625 774.828125 c 4
 698.298828125 774.465820312 672.78515625 774.828125 647.200195312 774.828125 c 4
628.935546875 574.060546875 m 4
 643.092773438 574.064453125 657.22265625 573.88671875 671.41015625 574.060546875 c 4
 716.869140625 574.060546875 761.622070312 571.825195312 805.569335938 566.28125 c 4
 872.215820312 557.877929688 912.619140625 518.638671875 911.67578125 461.017578125 c 4
 910.89453125 413.380859375 902.5859375 365.51171875 886.3515625 317.396484375 c 4
 866.909179688 259.783203125 812.732421875 220.530273438 743.122070312 212.125 c 4
 690.081054688 205.721679688 637.526367188 203.8203125 585.0078125 204.49609375 c 4
 532.251953125 203.815429688 480.368164062 205.7265625 429.584960938 212.125 c 4
 362.94140625 220.530273438 322.603515625 259.783203125 323.482421875 317.396484375 c 4
 324.213867188 365.51171875 332.788085938 413.380859375 348.806640625 461.017578125 c 4
 368.1796875 518.638671875 422.424804688 557.877929688 492.032226562 566.28125 c 4
 537.935546875 571.825195312 583.466796875 574.002929688 628.935546875 574.060546875 c 4
EndSplineSet
EndChar

StartChar: Sacute
Encoding: 215 346 108
Width: 1036
Flags: HW
LayerCount: 2
Fore
SplineSet
725.560546875 988 m 5
 576.357421875 832.59375 l 5
 603.666992188 796.177734375 l 5
 768.841796875 919.9765625 l 5
 725.560546875 988 l 5
396.106445312 768.583984375 m 6
 268.364257812 768.583984375 147.544921875 666.631835938 125.215820312 539.994140625 c 4
 102.885742188 413.356445312 187.751953125 311.408203125 315.494140625 311.408203125 c 6
 769.884765625 311.408203125 l 6
 797.080078125 304.897460938 813.690429688 279.860351562 808.376953125 249.724609375 c 6
 807.427734375 244.33984375 l 6
 801.236328125 209.225585938 767.733398438 180.95703125 732.311523438 180.95703125 c 6
 372.631835938 180.95703125 l 6
 337.2109375 180.95703125 313.6796875 209.225585938 319.87109375 244.33984375 c 6
 320.8203125 249.724609375 l 6
 321.713867188 254.793945312 323.237304688 259.698242188 325.196289062 264.41796875 c 5
 79.1533203125 264.41796875 l 6
 75.5478515625 253.336914062 72.6708984375 242 70.634765625 230.451171875 c 4
 48.3046875 103.8125 133.174804688 1.86328125 260.91796875 1.86328125 c 6
 775.91796875 1.86328125 l 6
 903.66015625 1.86328125 1024.47851562 103.8125 1046.80859375 230.451171875 c 4
 1069.13769531 357.087890625 984.2734375 459.0390625 856.53125 459.0390625 c 6
 402.138671875 459.0390625 l 6
 374.942382812 465.55078125 358.333007812 490.584960938 363.647460938 520.720703125 c 6
 364.596679688 526.10546875 l 6
 370.788085938 561.219726562 404.288085938 589.490234375 439.7109375 589.490234375 c 6
 799.390625 589.490234375 l 6
 834.811523438 589.490234375 858.344726562 561.219726562 852.153320312 526.10546875 c 6
 851.204101562 520.720703125 l 6
 850.309570312 515.651367188 848.786132812 510.748046875 846.828125 506.029296875 c 5
 1092.8671875 506.029296875 l 6
 1096.47265625 517.110351562 1099.35253906 528.444335938 1101.38964844 539.994140625 c 4
 1123.71875 666.631835938 1038.84960938 768.583984375 911.106445312 768.583984375 c 6
 396.106445312 768.583984375 l 6
EndSplineSet
EndChar

StartChar: Zdotaccent
Encoding: 175 379 109
Width: 960
Flags: HW
LayerCount: 2
Fore
SplineSet
589.407226562 918 m 5
 567.864257812 795.822265625 l 5
 692.150390625 795.822265625 l 5
 713.693359375 918 l 5
 589.407226562 918 l 5
165.458984375 768.227539062 m 5
 133.973632812 589.661132812 l 5
 789.702148438 589.661132812 l 5
 72.123046875 238.891601562 l 5
 61.751953125 180.073242188 l 5
 57.2041015625 154.283203125 l 5
 30.265625 1.5068359375 l 5
 930.807617188 1.5068359375 l 5
 962.293945312 180.073242188 l 5
 317.287109375 180.073242188 l 5
 1023.13183594 525.104492188 l 5
 1034.515625 589.661132812 l 5
 1066.00097656 768.227539062 l 5
 165.458984375 768.227539062 l 5
EndSplineSet
EndChar

StartChar: Zacute
Encoding: 172 377 110
Width: 960
Flags: HW
LayerCount: 2
Fore
SplineSet
687.5703125 987 m 5
 538.364257812 831.591796875 l 5
 565.673828125 795.177734375 l 5
 730.848632812 918.9765625 l 5
 687.5703125 987 l 5
165.317382812 767.42578125 m 5
 133.83203125 588.859375 l 5
 789.560546875 588.859375 l 5
 71.9814453125 238.08984375 l 5
 61.6103515625 179.271484375 l 5
 57.0634765625 153.482421875 l 5
 30.1240234375 0.705078125 l 5
 930.666992188 0.705078125 l 5
 962.153320312 179.271484375 l 5
 317.145507812 179.271484375 l 5
 1022.99121094 524.302734375 l 5
 1034.375 588.859375 l 5
 1065.86035156 767.42578125 l 5
 165.317382812 767.42578125 l 5
EndSplineSet
EndChar

StartChar: Lslash
Encoding: 163 321 111
Width: 786
Flags: HW
LayerCount: 2
Fore
SplineSet
165.243164062 767 m 5
 65.0126953125 198.567382812 l 5
 30.048828125 0.279296875 l 5
 275.173828125 0.279296875 l 5
 756.62890625 0.279296875 l 5
 791.592773438 198.567382812 l 5
 310.137695312 198.567382812 l 5
 330.177734375 312.219726562 l 5
 580.112304688 427.471679688 l 5
 605.298828125 570.313476562 l 5
 355.364257812 455.060546875 l 5
 410.368164062 767 l 5
 165.243164062 767 l 5
EndSplineSet
EndChar

